solid OpenSCAD_Model
  facet normal 0.514246 0.857643 -0
    outer loop
      vertex 43.6667 46.4944 -1.6
      vertex 43.4142 46.6458 0
      vertex 43.6667 46.4944 0
    endloop
  endfacet
  facet normal 0.514246 0.857643 0
    outer loop
      vertex 43.4142 46.6458 0
      vertex 43.6667 46.4944 -1.6
      vertex 43.4142 46.6458 -1.6
    endloop
  endfacet
  facet normal 0.989224 -0.146413 0
    outer loop
      vertex 44.9424 -44.5853 0
      vertex 44.9855 -44.2941 -1.6
      vertex 44.9855 -44.2941 0
    endloop
  endfacet
  facet normal 0.989224 -0.146413 0
    outer loop
      vertex 44.9855 -44.2941 -1.6
      vertex 44.9424 -44.5853 0
      vertex 44.9424 -44.5853 -1.6
    endloop
  endfacet
  facet normal 0.0492431 0.998787 -0
    outer loop
      vertex 42.2941 46.9855 -1.6
      vertex 42 47 0
      vertex 42.2941 46.9855 0
    endloop
  endfacet
  facet normal 0.0492431 0.998787 0
    outer loop
      vertex 42 47 0
      vertex 42.2941 46.9855 -1.6
      vertex 42 47 -1.6
    endloop
  endfacet
  facet normal -0.904063 0.4274 0
    outer loop
      vertex -44.7716 45.1481 -1.6
      vertex -44.6458 45.4142 0
      vertex -44.6458 45.4142 -1.6
    endloop
  endfacet
  facet normal -0.904063 0.4274 0
    outer loop
      vertex -44.6458 45.4142 0
      vertex -44.7716 45.1481 -1.6
      vertex -44.7716 45.1481 0
    endloop
  endfacet
  facet normal -0.707107 -0.707107 0
    outer loop
      vertex -31 -47 -1.6
      vertex -45 -33 0
      vertex -45 -33 -1.6
    endloop
  endfacet
  facet normal -0.707107 -0.707107 0
    outer loop
      vertex -45 -33 0
      vertex -31 -47 -1.6
      vertex -31 -47 0
    endloop
  endfacet
  facet normal 0.336831 0.941565 -0
    outer loop
      vertex 43.1481 46.7716 -1.6
      vertex 42.8708 46.8708 0
      vertex 43.1481 46.7716 0
    endloop
  endfacet
  facet normal 0.336831 0.941565 0
    outer loop
      vertex 42.8708 46.8708 0
      vertex 43.1481 46.7716 -1.6
      vertex 42.8708 46.8708 -1.6
    endloop
  endfacet
  facet normal -0.4274 0.904063 0
    outer loop
      vertex -43.1481 46.7716 -1.6
      vertex -43.4142 46.6458 0
      vertex -43.1481 46.7716 0
    endloop
  endfacet
  facet normal -0.4274 0.904063 0
    outer loop
      vertex -43.4142 46.6458 0
      vertex -43.1481 46.7716 -1.6
      vertex -43.4142 46.6458 -1.6
    endloop
  endfacet
  facet normal 0.4274 0.904063 -0
    outer loop
      vertex 43.4142 46.6458 -1.6
      vertex 43.1481 46.7716 0
      vertex 43.4142 46.6458 0
    endloop
  endfacet
  facet normal 0.4274 0.904063 0
    outer loop
      vertex 43.1481 46.7716 0
      vertex 43.4142 46.6458 -1.6
      vertex 43.1481 46.7716 -1.6
    endloop
  endfacet
  facet normal 0.998787 -0.0492431 0
    outer loop
      vertex 44.9855 -44.2941 0
      vertex 45 -44 -1.6
      vertex 45 -44 0
    endloop
  endfacet
  facet normal 0.998787 -0.0492431 0
    outer loop
      vertex 45 -44 -1.6
      vertex 44.9855 -44.2941 0
      vertex 44.9855 -44.2941 -1.6
    endloop
  endfacet
  facet normal 0.4274 -0.904063 0
    outer loop
      vertex 43.1481 -46.7716 -1.6
      vertex 43.4142 -46.6458 0
      vertex 43.1481 -46.7716 0
    endloop
  endfacet
  facet normal 0.4274 -0.904063 0
    outer loop
      vertex 43.4142 -46.6458 0
      vertex 43.1481 -46.7716 -1.6
      vertex 43.4142 -46.6458 -1.6
    endloop
  endfacet
  facet normal 0 -1 0
    outer loop
      vertex -31 -47 -1.6
      vertex 42 -47 0
      vertex -31 -47 0
    endloop
  endfacet
  facet normal 0 -1 -0
    outer loop
      vertex 42 -47 0
      vertex -31 -47 -1.6
      vertex 42 -47 -1.6
    endloop
  endfacet
  facet normal 0 1 -0
    outer loop
      vertex 42 47 -1.6
      vertex 5 47 0
      vertex 42 47 0
    endloop
  endfacet
  facet normal 0 1 0
    outer loop
      vertex 5 47 0
      vertex 42 47 -1.6
      vertex 5 47 -1.6
    endloop
  endfacet
  facet normal 0 1 -0
    outer loop
      vertex -5 47 -1.6
      vertex -42 47 0
      vertex -5 47 0
    endloop
  endfacet
  facet normal 0 1 0
    outer loop
      vertex -42 47 0
      vertex -5 47 -1.6
      vertex -42 47 -1.6
    endloop
  endfacet
  facet normal -0.336831 0.941565 0
    outer loop
      vertex -42.8708 46.8708 -1.6
      vertex -43.1481 46.7716 0
      vertex -42.8708 46.8708 0
    endloop
  endfacet
  facet normal -0.336831 0.941565 0
    outer loop
      vertex -43.1481 46.7716 0
      vertex -42.8708 46.8708 -1.6
      vertex -43.1481 46.7716 -1.6
    endloop
  endfacet
  facet normal 0.671607 -0.740908 0
    outer loop
      vertex 43.9032 -46.319 -1.6
      vertex 44.1213 -46.1213 0
      vertex 43.9032 -46.319 0
    endloop
  endfacet
  facet normal 0.671607 -0.740908 0
    outer loop
      vertex 44.1213 -46.1213 0
      vertex 43.9032 -46.319 -1.6
      vertex 44.1213 -46.1213 -1.6
    endloop
  endfacet
  facet normal 0.146413 0.989224 -0
    outer loop
      vertex 42.5853 46.9424 -1.6
      vertex 42.2941 46.9855 0
      vertex 42.5853 46.9424 0
    endloop
  endfacet
  facet normal 0.146413 0.989224 0
    outer loop
      vertex 42.2941 46.9855 0
      vertex 42.5853 46.9424 -1.6
      vertex 42.2941 46.9855 -1.6
    endloop
  endfacet
  facet normal -0.671607 0.740908 0
    outer loop
      vertex -43.9032 46.319 -1.6
      vertex -44.1213 46.1213 0
      vertex -43.9032 46.319 0
    endloop
  endfacet
  facet normal -0.671607 0.740908 0
    outer loop
      vertex -44.1213 46.1213 0
      vertex -43.9032 46.319 -1.6
      vertex -44.1213 46.1213 -1.6
    endloop
  endfacet
  facet normal 0.904063 -0.4274 0
    outer loop
      vertex 44.6458 -45.4142 0
      vertex 44.7716 -45.1481 -1.6
      vertex 44.7716 -45.1481 0
    endloop
  endfacet
  facet normal 0.904063 -0.4274 0
    outer loop
      vertex 44.7716 -45.1481 -1.6
      vertex 44.6458 -45.4142 0
      vertex 44.6458 -45.4142 -1.6
    endloop
  endfacet
  facet normal 0.941565 0.336831 0
    outer loop
      vertex 44.8708 44.8708 0
      vertex 44.7716 45.1481 -1.6
      vertex 44.7716 45.1481 0
    endloop
  endfacet
  facet normal 0.941565 0.336831 0
    outer loop
      vertex 44.7716 45.1481 -1.6
      vertex 44.8708 44.8708 0
      vertex 44.8708 44.8708 -1.6
    endloop
  endfacet
  facet normal -1 0 0
    outer loop
      vertex -45 -33 -1.6
      vertex -45 44 0
      vertex -45 44 -1.6
    endloop
  endfacet
  facet normal -1 -0 0
    outer loop
      vertex -45 44 0
      vertex -45 -33 -1.6
      vertex -45 -33 0
    endloop
  endfacet
  facet normal -0.740908 0.671607 0
    outer loop
      vertex -44.319 45.9032 -1.6
      vertex -44.1213 46.1213 0
      vertex -44.1213 46.1213 -1.6
    endloop
  endfacet
  facet normal -0.740908 0.671607 0
    outer loop
      vertex -44.1213 46.1213 0
      vertex -44.319 45.9032 -1.6
      vertex -44.319 45.9032 0
    endloop
  endfacet
  facet normal 0.904063 0.4274 0
    outer loop
      vertex 44.7716 45.1481 0
      vertex 44.6458 45.4142 -1.6
      vertex 44.6458 45.4142 0
    endloop
  endfacet
  facet normal 0.904063 0.4274 0
    outer loop
      vertex 44.6458 45.4142 -1.6
      vertex 44.7716 45.1481 0
      vertex 44.7716 45.1481 -1.6
    endloop
  endfacet
  facet normal 0.740908 -0.671607 0
    outer loop
      vertex 44.1213 -46.1213 0
      vertex 44.319 -45.9032 -1.6
      vertex 44.319 -45.9032 0
    endloop
  endfacet
  facet normal 0.740908 -0.671607 0
    outer loop
      vertex 44.319 -45.9032 -1.6
      vertex 44.1213 -46.1213 0
      vertex 44.1213 -46.1213 -1.6
    endloop
  endfacet
  facet normal 0.803208 0.595699 0
    outer loop
      vertex 44.4944 45.6667 0
      vertex 44.319 45.9032 -1.6
      vertex 44.319 45.9032 0
    endloop
  endfacet
  facet normal 0.803208 0.595699 0
    outer loop
      vertex 44.319 45.9032 -1.6
      vertex 44.4944 45.6667 0
      vertex 44.4944 45.6667 -1.6
    endloop
  endfacet
  facet normal 1 -0 0
    outer loop
      vertex 45 -44 0
      vertex 45 44 -1.6
      vertex 45 44 0
    endloop
  endfacet
  facet normal 1 0 0
    outer loop
      vertex 45 44 -1.6
      vertex 45 -44 0
      vertex 45 -44 -1.6
    endloop
  endfacet
  facet normal 0.243255 0.969962 -0
    outer loop
      vertex 42.8708 46.8708 -1.6
      vertex 42.5853 46.9424 0
      vertex 42.8708 46.8708 0
    endloop
  endfacet
  facet normal 0.243255 0.969962 0
    outer loop
      vertex 42.5853 46.9424 0
      vertex 42.8708 46.8708 -1.6
      vertex 42.5853 46.9424 -1.6
    endloop
  endfacet
  facet normal -0.803208 0.595699 0
    outer loop
      vertex -44.4944 45.6667 -1.6
      vertex -44.319 45.9032 0
      vertex -44.319 45.9032 -1.6
    endloop
  endfacet
  facet normal -0.803208 0.595699 0
    outer loop
      vertex -44.319 45.9032 0
      vertex -44.4944 45.6667 -1.6
      vertex -44.4944 45.6667 0
    endloop
  endfacet
  facet normal 0.857643 0.514246 0
    outer loop
      vertex 44.6458 45.4142 0
      vertex 44.4944 45.6667 -1.6
      vertex 44.4944 45.6667 0
    endloop
  endfacet
  facet normal 0.857643 0.514246 0
    outer loop
      vertex 44.4944 45.6667 -1.6
      vertex 44.6458 45.4142 0
      vertex 44.6458 45.4142 -1.6
    endloop
  endfacet
  facet normal 0.671607 0.740908 -0
    outer loop
      vertex 44.1213 46.1213 -1.6
      vertex 43.9032 46.319 0
      vertex 44.1213 46.1213 0
    endloop
  endfacet
  facet normal 0.671607 0.740908 0
    outer loop
      vertex 43.9032 46.319 0
      vertex 44.1213 46.1213 -1.6
      vertex 43.9032 46.319 -1.6
    endloop
  endfacet
  facet normal 0.998787 0.0492431 0
    outer loop
      vertex 45 44 0
      vertex 44.9855 44.2941 -1.6
      vertex 44.9855 44.2941 0
    endloop
  endfacet
  facet normal 0.998787 0.0492431 0
    outer loop
      vertex 44.9855 44.2941 -1.6
      vertex 45 44 0
      vertex 45 44 -1.6
    endloop
  endfacet
  facet normal -0.514246 0.857643 0
    outer loop
      vertex -43.4142 46.6458 -1.6
      vertex -43.6667 46.4944 0
      vertex -43.4142 46.6458 0
    endloop
  endfacet
  facet normal -0.514246 0.857643 0
    outer loop
      vertex -43.6667 46.4944 0
      vertex -43.4142 46.6458 -1.6
      vertex -43.6667 46.4944 -1.6
    endloop
  endfacet
  facet normal -0.146413 0.989224 0
    outer loop
      vertex -42.2941 46.9855 -1.6
      vertex -42.5853 46.9424 0
      vertex -42.2941 46.9855 0
    endloop
  endfacet
  facet normal -0.146413 0.989224 0
    outer loop
      vertex -42.5853 46.9424 0
      vertex -42.2941 46.9855 -1.6
      vertex -42.5853 46.9424 -1.6
    endloop
  endfacet
  facet normal 0 0 1
    outer loop
      vertex -4.7847 45.5486 0
      vertex -41.9548 45.15 0
      vertex -4.64209 45.15 0
    endloop
  endfacet
  facet normal 0 0 1
    outer loop
      vertex -4.90393 46.0245 0
      vertex -41.9548 45.15 0
      vertex -4.7847 45.5486 0
    endloop
  endfacet
  facet normal 0 0 1
    outer loop
      vertex -4.97592 46.5099 0
      vertex -41.9548 45.15 0
      vertex -4.90393 46.0245 0
    endloop
  endfacet
  facet normal 0 0 1
    outer loop
      vertex -5 47 0
      vertex -41.9548 45.15 0
      vertex -4.97592 46.5099 0
    endloop
  endfacet
  facet normal -0 0 1
    outer loop
      vertex -42 47 0
      vertex -41.9548 45.15 0
      vertex -5 47 0
    endloop
  endfacet
  facet normal 0 0 1
    outer loop
      vertex -42 47 0
      vertex -42.1125 45.1422 0
      vertex -41.9548 45.15 0
    endloop
  endfacet
  facet normal -0 0 1
    outer loop
      vertex -42.2941 46.9855 0
      vertex -42.1125 45.1422 0
      vertex -42 47 0
    endloop
  endfacet
  facet normal 0 0 1
    outer loop
      vertex -42.1125 45.1422 0
      vertex -42.2941 46.9855 0
      vertex -42.2239 45.1257 0
    endloop
  endfacet
  facet normal -0 0 1
    outer loop
      vertex -42.5853 46.9424 0
      vertex -42.2239 45.1257 0
      vertex -42.2941 46.9855 0
    endloop
  endfacet
  facet normal 0 0 1
    outer loop
      vertex -42.2239 45.1257 0
      vertex -42.5853 46.9424 0
      vertex -42.3331 45.0984 0
    endloop
  endfacet
  facet normal -0 0 1
    outer loop
      vertex -42.8708 46.8708 0
      vertex -42.3331 45.0984 0
      vertex -42.5853 46.9424 0
    endloop
  endfacet
  facet normal 0 0 1
    outer loop
      vertex -42.3331 45.0984 0
      vertex -42.8708 46.8708 0
      vertex -42.4393 45.0604 0
    endloop
  endfacet
  facet normal -0 0 1
    outer loop
      vertex -43.1481 46.7716 0
      vertex -42.4393 45.0604 0
      vertex -42.8708 46.8708 0
    endloop
  endfacet
  facet normal 0 0 1
    outer loop
      vertex -42.4393 45.0604 0
      vertex -43.1481 46.7716 0
      vertex -42.5412 45.0122 0
    endloop
  endfacet
  facet normal -0 0 1
    outer loop
      vertex -43.4142 46.6458 0
      vertex -42.5412 45.0122 0
      vertex -43.1481 46.7716 0
    endloop
  endfacet
  facet normal 0 0 1
    outer loop
      vertex -42.5412 45.0122 0
      vertex -43.4142 46.6458 0
      vertex -42.6376 44.9544 0
    endloop
  endfacet
  facet normal -0 0 1
    outer loop
      vertex -43.6667 46.4944 0
      vertex -42.6376 44.9544 0
      vertex -43.4142 46.6458 0
    endloop
  endfacet
  facet normal 0 0 1
    outer loop
      vertex -42.6376 44.9544 0
      vertex -43.6667 46.4944 0
      vertex -42.7281 44.8873 0
    endloop
  endfacet
  facet normal -0 0 1
    outer loop
      vertex -43.9032 46.319 0
      vertex -42.7281 44.8873 0
      vertex -43.6667 46.4944 0
    endloop
  endfacet
  facet normal 0 0 1
    outer loop
      vertex -42.7281 44.8873 0
      vertex -43.9032 46.319 0
      vertex -42.8116 44.8116 0
    endloop
  endfacet
  facet normal -0 0 1
    outer loop
      vertex -44.1213 46.1213 0
      vertex -42.8116 44.8116 0
      vertex -43.9032 46.319 0
    endloop
  endfacet
  facet normal 0 0 1
    outer loop
      vertex -42.8116 44.8116 0
      vertex -44.1213 46.1213 0
      vertex -42.8873 44.7281 0
    endloop
  endfacet
  facet normal -0 0 1
    outer loop
      vertex -44.319 45.9032 0
      vertex -42.8873 44.7281 0
      vertex -44.1213 46.1213 0
    endloop
  endfacet
  facet normal 0 0 1
    outer loop
      vertex -42.8873 44.7281 0
      vertex -44.319 45.9032 0
      vertex -42.9544 44.6376 0
    endloop
  endfacet
  facet normal -0 0 1
    outer loop
      vertex -44.4944 45.6667 0
      vertex -42.9544 44.6376 0
      vertex -44.319 45.9032 0
    endloop
  endfacet
  facet normal -0 0 1
    outer loop
      vertex -44.6458 45.4142 0
      vertex -43.0122 44.5412 0
      vertex -44.4944 45.6667 0
    endloop
  endfacet
  facet normal 0 0 1
    outer loop
      vertex -42.9544 44.6376 0
      vertex -44.4944 45.6667 0
      vertex -43.0122 44.5412 0
    endloop
  endfacet
  facet normal -0 0 1
    outer loop
      vertex 43.1422 44.1125 0
      vertex 45 44 0
      vertex 44.9855 44.2941 0
    endloop
  endfacet
  facet normal 0 0 1
    outer loop
      vertex 45 44 0
      vertex 43.15 43.9548 0
      vertex 45 -44 0
    endloop
  endfacet
  facet normal 0 0 1
    outer loop
      vertex 43.1422 44.1125 0
      vertex 44.9855 44.2941 0
      vertex 44.9424 44.5853 0
    endloop
  endfacet
  facet normal -0 0 1
    outer loop
      vertex 43.15 -43.9548 0
      vertex 45 -44 0
      vertex 43.15 43.9548 0
    endloop
  endfacet
  facet normal 0 0 1
    outer loop
      vertex 43.1257 44.2239 0
      vertex 44.9424 44.5853 0
      vertex 44.8708 44.8708 0
    endloop
  endfacet
  facet normal 0 0 1
    outer loop
      vertex 43.1422 -44.1125 0
      vertex 45 -44 0
      vertex 43.15 -43.9548 0
    endloop
  endfacet
  facet normal 0 0 1
    outer loop
      vertex 43.0984 44.3331 0
      vertex 44.8708 44.8708 0
      vertex 44.7716 45.1481 0
    endloop
  endfacet
  facet normal 0 0 1
    outer loop
      vertex 45 -44 0
      vertex 43.1422 -44.1125 0
      vertex 44.9855 -44.2941 0
    endloop
  endfacet
  facet normal 0 0 1
    outer loop
      vertex 43.0604 44.4393 0
      vertex 44.7716 45.1481 0
      vertex 44.6458 45.4142 0
    endloop
  endfacet
  facet normal 0 0 1
    outer loop
      vertex 44.9855 -44.2941 0
      vertex 43.1422 -44.1125 0
      vertex 44.9424 -44.5853 0
    endloop
  endfacet
  facet normal 0 0 1
    outer loop
      vertex 43.0122 44.5412 0
      vertex 44.6458 45.4142 0
      vertex 44.4944 45.6667 0
    endloop
  endfacet
  facet normal -0 0 1
    outer loop
      vertex 43.1257 -44.2239 0
      vertex 44.9424 -44.5853 0
      vertex 43.1422 -44.1125 0
    endloop
  endfacet
  facet normal 0 0 1
    outer loop
      vertex 42.9544 44.6376 0
      vertex 44.4944 45.6667 0
      vertex 44.319 45.9032 0
    endloop
  endfacet
  facet normal 0 0 1
    outer loop
      vertex 44.9424 -44.5853 0
      vertex 43.1257 -44.2239 0
      vertex 44.8708 -44.8708 0
    endloop
  endfacet
  facet normal 0 0 1
    outer loop
      vertex 42.8873 44.7281 0
      vertex 44.319 45.9032 0
      vertex 44.1213 46.1213 0
    endloop
  endfacet
  facet normal -0 0 1
    outer loop
      vertex 43.0984 -44.3331 0
      vertex 44.8708 -44.8708 0
      vertex 43.1257 -44.2239 0
    endloop
  endfacet
  facet normal 0 0 1
    outer loop
      vertex 42.8116 44.8116 0
      vertex 44.1213 46.1213 0
      vertex 43.9032 46.319 0
    endloop
  endfacet
  facet normal 0 0 1
    outer loop
      vertex 44.8708 -44.8708 0
      vertex 43.0984 -44.3331 0
      vertex 44.7716 -45.1481 0
    endloop
  endfacet
  facet normal 0 0 1
    outer loop
      vertex 42.7281 44.8873 0
      vertex 43.9032 46.319 0
      vertex 43.6667 46.4944 0
    endloop
  endfacet
  facet normal -0 0 1
    outer loop
      vertex 43.0604 -44.4393 0
      vertex 44.7716 -45.1481 0
      vertex 43.0984 -44.3331 0
    endloop
  endfacet
  facet normal 0 0 1
    outer loop
      vertex 42.6376 44.9544 0
      vertex 43.6667 46.4944 0
      vertex 43.4142 46.6458 0
    endloop
  endfacet
  facet normal 0 0 1
    outer loop
      vertex 44.7716 -45.1481 0
      vertex 43.0604 -44.4393 0
      vertex 44.6458 -45.4142 0
    endloop
  endfacet
  facet normal -0 0 1
    outer loop
      vertex 43.0122 -44.5412 0
      vertex 44.6458 -45.4142 0
      vertex 43.0604 -44.4393 0
    endloop
  endfacet
  facet normal 0 0 1
    outer loop
      vertex 42.5412 45.0122 0
      vertex 43.4142 46.6458 0
      vertex 43.1481 46.7716 0
    endloop
  endfacet
  facet normal 0 0 1
    outer loop
      vertex 45 44 0
      vertex 43.1422 44.1125 0
      vertex 43.15 43.9548 0
    endloop
  endfacet
  facet normal 0 0 1
    outer loop
      vertex 44.9424 44.5853 0
      vertex 43.1257 44.2239 0
      vertex 43.1422 44.1125 0
    endloop
  endfacet
  facet normal 0 0 1
    outer loop
      vertex 44.8708 44.8708 0
      vertex 43.0984 44.3331 0
      vertex 43.1257 44.2239 0
    endloop
  endfacet
  facet normal 0 0 1
    outer loop
      vertex 44.7716 45.1481 0
      vertex 43.0604 44.4393 0
      vertex 43.0984 44.3331 0
    endloop
  endfacet
  facet normal 0 0 1
    outer loop
      vertex 44.6458 45.4142 0
      vertex 43.0122 44.5412 0
      vertex 43.0604 44.4393 0
    endloop
  endfacet
  facet normal 0 0 1
    outer loop
      vertex 44.4944 45.6667 0
      vertex 42.9544 44.6376 0
      vertex 43.0122 44.5412 0
    endloop
  endfacet
  facet normal 0 0 1
    outer loop
      vertex 44.319 45.9032 0
      vertex 42.8873 44.7281 0
      vertex 42.9544 44.6376 0
    endloop
  endfacet
  facet normal 0 0 1
    outer loop
      vertex 42.4393 45.0604 0
      vertex 43.1481 46.7716 0
      vertex 42.8708 46.8708 0
    endloop
  endfacet
  facet normal 0 0 1
    outer loop
      vertex 44.1213 46.1213 0
      vertex 42.8116 44.8116 0
      vertex 42.8873 44.7281 0
    endloop
  endfacet
  facet normal 0 0 1
    outer loop
      vertex 43.9032 46.319 0
      vertex 42.7281 44.8873 0
      vertex 42.8116 44.8116 0
    endloop
  endfacet
  facet normal 0 0 1
    outer loop
      vertex 43.6667 46.4944 0
      vertex 42.6376 44.9544 0
      vertex 42.7281 44.8873 0
    endloop
  endfacet
  facet normal 0 0 1
    outer loop
      vertex 42.3331 45.0984 0
      vertex 42.8708 46.8708 0
      vertex 42.5853 46.9424 0
    endloop
  endfacet
  facet normal 0 0 1
    outer loop
      vertex 43.4142 46.6458 0
      vertex 42.5412 45.0122 0
      vertex 42.6376 44.9544 0
    endloop
  endfacet
  facet normal 0 0 1
    outer loop
      vertex 43.1481 46.7716 0
      vertex 42.4393 45.0604 0
      vertex 42.5412 45.0122 0
    endloop
  endfacet
  facet normal 0 0 1
    outer loop
      vertex 42.8708 46.8708 0
      vertex 42.3331 45.0984 0
      vertex 42.4393 45.0604 0
    endloop
  endfacet
  facet normal 0 0 1
    outer loop
      vertex 42.2239 45.1257 0
      vertex 42.5853 46.9424 0
      vertex 42.2941 46.9855 0
    endloop
  endfacet
  facet normal 0 0 1
    outer loop
      vertex 42.5853 46.9424 0
      vertex 42.2239 45.1257 0
      vertex 42.3331 45.0984 0
    endloop
  endfacet
  facet normal 0 0 1
    outer loop
      vertex 42.2941 46.9855 0
      vertex 42.1125 45.1422 0
      vertex 42.2239 45.1257 0
    endloop
  endfacet
  facet normal 0 0 1
    outer loop
      vertex 42 47 0
      vertex 42.1125 45.1422 0
      vertex 42.2941 46.9855 0
    endloop
  endfacet
  facet normal 0 0 1
    outer loop
      vertex 42 47 0
      vertex 41.9548 45.15 0
      vertex 42.1125 45.1422 0
    endloop
  endfacet
  facet normal -0 0 1
    outer loop
      vertex 5 47 0
      vertex 41.9548 45.15 0
      vertex 42 47 0
    endloop
  endfacet
  facet normal -0 0 1
    outer loop
      vertex 4.97592 46.5099 0
      vertex 41.9548 45.15 0
      vertex 5 47 0
    endloop
  endfacet
  facet normal -0 0 1
    outer loop
      vertex 4.90393 46.0245 0
      vertex 41.9548 45.15 0
      vertex 4.97592 46.5099 0
    endloop
  endfacet
  facet normal -0 0 1
    outer loop
      vertex 4.7847 45.5486 0
      vertex 41.9548 45.15 0
      vertex 4.90393 46.0245 0
    endloop
  endfacet
  facet normal 0 0 1
    outer loop
      vertex 41.9548 45.15 0
      vertex 4.7847 45.5486 0
      vertex 4.64209 45.15 0
    endloop
  endfacet
  facet normal 0 0 1
    outer loop
      vertex 44.6458 -45.4142 0
      vertex 43.0122 -44.5412 0
      vertex 44.4944 -45.6667 0
    endloop
  endfacet
  facet normal -0 0 1
    outer loop
      vertex 42.9544 -44.6376 0
      vertex 44.4944 -45.6667 0
      vertex 43.0122 -44.5412 0
    endloop
  endfacet
  facet normal 0 0 1
    outer loop
      vertex 44.4944 -45.6667 0
      vertex 42.9544 -44.6376 0
      vertex 44.319 -45.9032 0
    endloop
  endfacet
  facet normal -0 0 1
    outer loop
      vertex 42.8873 -44.7281 0
      vertex 44.319 -45.9032 0
      vertex 42.9544 -44.6376 0
    endloop
  endfacet
  facet normal 0 0 1
    outer loop
      vertex 44.319 -45.9032 0
      vertex 42.8873 -44.7281 0
      vertex 44.1213 -46.1213 0
    endloop
  endfacet
  facet normal -0 0 1
    outer loop
      vertex 42.8116 -44.8116 0
      vertex 44.1213 -46.1213 0
      vertex 42.8873 -44.7281 0
    endloop
  endfacet
  facet normal 0 0 1
    outer loop
      vertex 44.1213 -46.1213 0
      vertex 42.8116 -44.8116 0
      vertex 43.9032 -46.319 0
    endloop
  endfacet
  facet normal -0 0 1
    outer loop
      vertex 42.7281 -44.8873 0
      vertex 43.9032 -46.319 0
      vertex 42.8116 -44.8116 0
    endloop
  endfacet
  facet normal 0 0 1
    outer loop
      vertex 43.9032 -46.319 0
      vertex 42.7281 -44.8873 0
      vertex 43.6667 -46.4944 0
    endloop
  endfacet
  facet normal -0 0 1
    outer loop
      vertex 42.6376 -44.9544 0
      vertex 43.6667 -46.4944 0
      vertex 42.7281 -44.8873 0
    endloop
  endfacet
  facet normal 0 0 1
    outer loop
      vertex 43.6667 -46.4944 0
      vertex 42.6376 -44.9544 0
      vertex 43.4142 -46.6458 0
    endloop
  endfacet
  facet normal -0 0 1
    outer loop
      vertex 42.5412 -45.0122 0
      vertex 43.4142 -46.6458 0
      vertex 42.6376 -44.9544 0
    endloop
  endfacet
  facet normal 0 0 1
    outer loop
      vertex 43.4142 -46.6458 0
      vertex 42.5412 -45.0122 0
      vertex 43.1481 -46.7716 0
    endloop
  endfacet
  facet normal -0 0 1
    outer loop
      vertex 42.4393 -45.0604 0
      vertex 43.1481 -46.7716 0
      vertex 42.5412 -45.0122 0
    endloop
  endfacet
  facet normal 0 0 1
    outer loop
      vertex 43.1481 -46.7716 0
      vertex 42.4393 -45.0604 0
      vertex 42.8708 -46.8708 0
    endloop
  endfacet
  facet normal -0 0 1
    outer loop
      vertex 42.3331 -45.0984 0
      vertex 42.8708 -46.8708 0
      vertex 42.4393 -45.0604 0
    endloop
  endfacet
  facet normal 0 0 1
    outer loop
      vertex 42.8708 -46.8708 0
      vertex 42.3331 -45.0984 0
      vertex 42.5853 -46.9424 0
    endloop
  endfacet
  facet normal -0 0 1
    outer loop
      vertex 42.2239 -45.1257 0
      vertex 42.5853 -46.9424 0
      vertex 42.3331 -45.0984 0
    endloop
  endfacet
  facet normal 0 0 1
    outer loop
      vertex 42.5853 -46.9424 0
      vertex 42.2239 -45.1257 0
      vertex 42.2941 -46.9855 0
    endloop
  endfacet
  facet normal -0 0 1
    outer loop
      vertex 42.1125 -45.1422 0
      vertex 42.2941 -46.9855 0
      vertex 42.2239 -45.1257 0
    endloop
  endfacet
  facet normal 0 0 1
    outer loop
      vertex 42.1125 -45.1422 0
      vertex 42 -47 0
      vertex 42.2941 -46.9855 0
    endloop
  endfacet
  facet normal -0 0 1
    outer loop
      vertex 41.9548 -45.15 0
      vertex 42 -47 0
      vertex 42.1125 -45.1422 0
    endloop
  endfacet
  facet normal -0 0 1
    outer loop
      vertex -30.2337 -45.15 0
      vertex 42 -47 0
      vertex 41.9548 -45.15 0
    endloop
  endfacet
  facet normal 0 0 1
    outer loop
      vertex -30.2337 -45.15 0
      vertex -31 -47 0
      vertex 42 -47 0
    endloop
  endfacet
  facet normal 0 0 1
    outer loop
      vertex -43.15 -32.2337 0
      vertex -31 -47 0
      vertex -30.2337 -45.15 0
    endloop
  endfacet
  facet normal 0 0 1
    outer loop
      vertex -43.0122 44.5412 0
      vertex -44.6458 45.4142 0
      vertex -43.0604 44.4393 0
    endloop
  endfacet
  facet normal -0 0 1
    outer loop
      vertex -44.7716 45.1481 0
      vertex -43.0604 44.4393 0
      vertex -44.6458 45.4142 0
    endloop
  endfacet
  facet normal 0 0 1
    outer loop
      vertex -43.0604 44.4393 0
      vertex -44.7716 45.1481 0
      vertex -43.0984 44.3331 0
    endloop
  endfacet
  facet normal -0 0 1
    outer loop
      vertex -44.8708 44.8708 0
      vertex -43.0984 44.3331 0
      vertex -44.7716 45.1481 0
    endloop
  endfacet
  facet normal 0 0 1
    outer loop
      vertex -43.0984 44.3331 0
      vertex -44.8708 44.8708 0
      vertex -43.1257 44.2239 0
    endloop
  endfacet
  facet normal -0 0 1
    outer loop
      vertex -44.9424 44.5853 0
      vertex -43.1257 44.2239 0
      vertex -44.8708 44.8708 0
    endloop
  endfacet
  facet normal 0 0 1
    outer loop
      vertex -43.1257 44.2239 0
      vertex -44.9424 44.5853 0
      vertex -43.1422 44.1125 0
    endloop
  endfacet
  facet normal -0 0 1
    outer loop
      vertex -44.9855 44.2941 0
      vertex -43.1422 44.1125 0
      vertex -44.9424 44.5853 0
    endloop
  endfacet
  facet normal 0 0 1
    outer loop
      vertex -45 44 0
      vertex -43.1422 44.1125 0
      vertex -44.9855 44.2941 0
    endloop
  endfacet
  facet normal 0 0 1
    outer loop
      vertex -43.1422 44.1125 0
      vertex -45 44 0
      vertex -43.15 43.9548 0
    endloop
  endfacet
  facet normal 0 0 1
    outer loop
      vertex -43.15 43.9548 0
      vertex -45 44 0
      vertex -43.15 -32.2337 0
    endloop
  endfacet
  facet normal 0 0 1
    outer loop
      vertex -43.15 -32.2337 0
      vertex -45 -33 0
      vertex -31 -47 0
    endloop
  endfacet
  facet normal 0 0 1
    outer loop
      vertex -45 -33 0
      vertex -43.15 -32.2337 0
      vertex -45 44 0
    endloop
  endfacet
  facet normal 0 0 1
    outer loop
      vertex 3.53553 43.4645 0
      vertex 41.75 43.75 0
      vertex 3.79433 43.75 0
    endloop
  endfacet
  facet normal 0 0 1
    outer loop
      vertex 3.17197 43.1349 0
      vertex 41.75 43.75 0
      vertex 3.53553 43.4645 0
    endloop
  endfacet
  facet normal 0 0 1
    outer loop
      vertex 2.77785 42.8427 0
      vertex 41.75 43.75 0
      vertex 3.17197 43.1349 0
    endloop
  endfacet
  facet normal 0 0 1
    outer loop
      vertex 2.35698 42.5904 0
      vertex 41.75 43.75 0
      vertex 2.77785 42.8427 0
    endloop
  endfacet
  facet normal 0 0 1
    outer loop
      vertex 41.75 43.75 0
      vertex 2.35698 42.5904 0
      vertex 41.75 -43.75 0
    endloop
  endfacet
  facet normal -0 0 1
    outer loop
      vertex 1.91342 42.3806 0
      vertex 41.75 -43.75 0
      vertex 2.35698 42.5904 0
    endloop
  endfacet
  facet normal -0 0 1
    outer loop
      vertex 1.45142 42.2153 0
      vertex 41.75 -43.75 0
      vertex 1.91342 42.3806 0
    endloop
  endfacet
  facet normal -0 0 1
    outer loop
      vertex 0.975451 42.0961 0
      vertex 41.75 -43.75 0
      vertex 1.45142 42.2153 0
    endloop
  endfacet
  facet normal -0 0 1
    outer loop
      vertex 0.490086 42.0241 0
      vertex 41.75 -43.75 0
      vertex 0.975451 42.0961 0
    endloop
  endfacet
  facet normal 0 0 1
    outer loop
      vertex -29.6538 -43.75 0
      vertex 0.490086 42.0241 0
      vertex 0 42 0
    endloop
  endfacet
  facet normal 0 0 1
    outer loop
      vertex -29.6538 -43.75 0
      vertex 0 42 0
      vertex -0.490086 42.0241 0
    endloop
  endfacet
  facet normal 0 0 1
    outer loop
      vertex -41.75 -31.6538 0
      vertex -0.490086 42.0241 0
      vertex -0.975451 42.0961 0
    endloop
  endfacet
  facet normal 0 0 1
    outer loop
      vertex -41.75 -31.6538 0
      vertex -0.975451 42.0961 0
      vertex -1.45142 42.2153 0
    endloop
  endfacet
  facet normal 0 0 1
    outer loop
      vertex -41.75 -31.6538 0
      vertex -1.45142 42.2153 0
      vertex -1.91342 42.3806 0
    endloop
  endfacet
  facet normal 0 0 1
    outer loop
      vertex -41.75 -31.6538 0
      vertex -1.91342 42.3806 0
      vertex -2.35698 42.5904 0
    endloop
  endfacet
  facet normal 0 0 1
    outer loop
      vertex -41.75 43.75 0
      vertex -2.35698 42.5904 0
      vertex -2.77785 42.8427 0
    endloop
  endfacet
  facet normal 0 0 1
    outer loop
      vertex -41.75 43.75 0
      vertex -2.77785 42.8427 0
      vertex -3.17197 43.1349 0
    endloop
  endfacet
  facet normal 0 0 1
    outer loop
      vertex -41.75 43.75 0
      vertex -3.17197 43.1349 0
      vertex -3.53553 43.4645 0
    endloop
  endfacet
  facet normal -0 0 1
    outer loop
      vertex -41.75 43.75 0
      vertex -3.53553 43.4645 0
      vertex -3.79433 43.75 0
    endloop
  endfacet
  facet normal 0 0 1
    outer loop
      vertex 0.490086 42.0241 0
      vertex -29.6538 -43.75 0
      vertex 41.75 -43.75 0
    endloop
  endfacet
  facet normal 0 0 1
    outer loop
      vertex -2.35698 42.5904 0
      vertex -41.75 43.75 0
      vertex -41.75 -31.6538 0
    endloop
  endfacet
  facet normal 0 0 1
    outer loop
      vertex -0.490086 42.0241 0
      vertex -41.75 -31.6538 0
      vertex -29.6538 -43.75 0
    endloop
  endfacet
  facet normal -0.243255 0.969962 0
    outer loop
      vertex -42.5853 46.9424 -1.6
      vertex -42.8708 46.8708 0
      vertex -42.5853 46.9424 0
    endloop
  endfacet
  facet normal -0.243255 0.969962 0
    outer loop
      vertex -42.8708 46.8708 0
      vertex -42.5853 46.9424 -1.6
      vertex -42.8708 46.8708 -1.6
    endloop
  endfacet
  facet normal 0.336831 -0.941565 0
    outer loop
      vertex 42.8708 -46.8708 -1.6
      vertex 43.1481 -46.7716 0
      vertex 42.8708 -46.8708 0
    endloop
  endfacet
  facet normal 0.336831 -0.941565 0
    outer loop
      vertex 43.1481 -46.7716 0
      vertex 42.8708 -46.8708 -1.6
      vertex 43.1481 -46.7716 -1.6
    endloop
  endfacet
  facet normal 0.595699 0.803208 -0
    outer loop
      vertex 43.9032 46.319 -1.6
      vertex 43.6667 46.4944 0
      vertex 43.9032 46.319 0
    endloop
  endfacet
  facet normal 0.595699 0.803208 0
    outer loop
      vertex 43.6667 46.4944 0
      vertex 43.9032 46.319 -1.6
      vertex 43.6667 46.4944 -1.6
    endloop
  endfacet
  facet normal 0.803208 -0.595699 0
    outer loop
      vertex 44.319 -45.9032 0
      vertex 44.4944 -45.6667 -1.6
      vertex 44.4944 -45.6667 0
    endloop
  endfacet
  facet normal 0.803208 -0.595699 0
    outer loop
      vertex 44.4944 -45.6667 -1.6
      vertex 44.319 -45.9032 0
      vertex 44.319 -45.9032 -1.6
    endloop
  endfacet
  facet normal -0.857643 0.514246 0
    outer loop
      vertex -44.6458 45.4142 -1.6
      vertex -44.4944 45.6667 0
      vertex -44.4944 45.6667 -1.6
    endloop
  endfacet
  facet normal -0.857643 0.514246 0
    outer loop
      vertex -44.4944 45.6667 0
      vertex -44.6458 45.4142 -1.6
      vertex -44.6458 45.4142 0
    endloop
  endfacet
  facet normal -0.0492431 0.998787 0
    outer loop
      vertex -42 47 -1.6
      vertex -42.2941 46.9855 0
      vertex -42 47 0
    endloop
  endfacet
  facet normal -0.0492431 0.998787 0
    outer loop
      vertex -42.2941 46.9855 0
      vertex -42 47 -1.6
      vertex -42.2941 46.9855 -1.6
    endloop
  endfacet
  facet normal 0.969962 0.243255 0
    outer loop
      vertex 44.9424 44.5853 0
      vertex 44.8708 44.8708 -1.6
      vertex 44.8708 44.8708 0
    endloop
  endfacet
  facet normal 0.969962 0.243255 0
    outer loop
      vertex 44.8708 44.8708 -1.6
      vertex 44.9424 44.5853 0
      vertex 44.9424 44.5853 -1.6
    endloop
  endfacet
  facet normal -0.998787 0.0492431 0
    outer loop
      vertex -45 44 -1.6
      vertex -44.9855 44.2941 0
      vertex -44.9855 44.2941 -1.6
    endloop
  endfacet
  facet normal -0.998787 0.0492431 0
    outer loop
      vertex -44.9855 44.2941 0
      vertex -45 44 -1.6
      vertex -45 44 0
    endloop
  endfacet
  facet normal 0.857643 -0.514246 0
    outer loop
      vertex 44.4944 -45.6667 0
      vertex 44.6458 -45.4142 -1.6
      vertex 44.6458 -45.4142 0
    endloop
  endfacet
  facet normal 0.857643 -0.514246 0
    outer loop
      vertex 44.6458 -45.4142 -1.6
      vertex 44.4944 -45.6667 0
      vertex 44.4944 -45.6667 -1.6
    endloop
  endfacet
  facet normal 0.514246 -0.857643 0
    outer loop
      vertex 43.4142 -46.6458 -1.6
      vertex 43.6667 -46.4944 0
      vertex 43.4142 -46.6458 0
    endloop
  endfacet
  facet normal 0.514246 -0.857643 0
    outer loop
      vertex 43.6667 -46.4944 0
      vertex 43.4142 -46.6458 -1.6
      vertex 43.6667 -46.4944 -1.6
    endloop
  endfacet
  facet normal -0.595699 0.803208 0
    outer loop
      vertex -43.6667 46.4944 -1.6
      vertex -43.9032 46.319 0
      vertex -43.6667 46.4944 0
    endloop
  endfacet
  facet normal -0.595699 0.803208 0
    outer loop
      vertex -43.9032 46.319 0
      vertex -43.6667 46.4944 -1.6
      vertex -43.9032 46.319 -1.6
    endloop
  endfacet
  facet normal 0 0 -1
    outer loop
      vertex 42 -47 -1.6
      vertex 45 -44 -1.6
      vertex 44.9855 -44.2941 -1.6
    endloop
  endfacet
  facet normal 0 0 -1
    outer loop
      vertex 45 -44 -1.6
      vertex 2.35698 42.5904 -1.6
      vertex 45 44 -1.6
    endloop
  endfacet
  facet normal 0 0 -1
    outer loop
      vertex 42 -47 -1.6
      vertex 44.9855 -44.2941 -1.6
      vertex 44.9424 -44.5853 -1.6
    endloop
  endfacet
  facet normal 0 -0 -1
    outer loop
      vertex 2.77785 42.8427 -1.6
      vertex 45 44 -1.6
      vertex 2.35698 42.5904 -1.6
    endloop
  endfacet
  facet normal 0 0 -1
    outer loop
      vertex 42 -47 -1.6
      vertex 44.9424 -44.5853 -1.6
      vertex 44.8708 -44.8708 -1.6
    endloop
  endfacet
  facet normal 0 -0 -1
    outer loop
      vertex 3.17197 43.1349 -1.6
      vertex 45 44 -1.6
      vertex 2.77785 42.8427 -1.6
    endloop
  endfacet
  facet normal 0 0 -1
    outer loop
      vertex 42 -47 -1.6
      vertex 44.8708 -44.8708 -1.6
      vertex 44.7716 -45.1481 -1.6
    endloop
  endfacet
  facet normal 0 -0 -1
    outer loop
      vertex 3.53553 43.4645 -1.6
      vertex 45 44 -1.6
      vertex 3.17197 43.1349 -1.6
    endloop
  endfacet
  facet normal 0 0 -1
    outer loop
      vertex 42 -47 -1.6
      vertex 44.7716 -45.1481 -1.6
      vertex 44.6458 -45.4142 -1.6
    endloop
  endfacet
  facet normal 0 -0 -1
    outer loop
      vertex 3.86505 43.828 -1.6
      vertex 45 44 -1.6
      vertex 3.53553 43.4645 -1.6
    endloop
  endfacet
  facet normal 0 0 -1
    outer loop
      vertex 42 -47 -1.6
      vertex 44.6458 -45.4142 -1.6
      vertex 44.4944 -45.6667 -1.6
    endloop
  endfacet
  facet normal 0 0 -1
    outer loop
      vertex 45 44 -1.6
      vertex 42 47 -1.6
      vertex 44.9855 44.2941 -1.6
    endloop
  endfacet
  facet normal 0 0 -1
    outer loop
      vertex 42 -47 -1.6
      vertex 44.4944 -45.6667 -1.6
      vertex 44.319 -45.9032 -1.6
    endloop
  endfacet
  facet normal 0 0 -1
    outer loop
      vertex 44.9855 44.2941 -1.6
      vertex 42 47 -1.6
      vertex 44.9424 44.5853 -1.6
    endloop
  endfacet
  facet normal 0 0 -1
    outer loop
      vertex 42 -47 -1.6
      vertex 44.319 -45.9032 -1.6
      vertex 44.1213 -46.1213 -1.6
    endloop
  endfacet
  facet normal 0 0 -1
    outer loop
      vertex 44.8708 44.8708 -1.6
      vertex 42 47 -1.6
      vertex 44.7716 45.1481 -1.6
    endloop
  endfacet
  facet normal 0 0 -1
    outer loop
      vertex 42 -47 -1.6
      vertex 44.1213 -46.1213 -1.6
      vertex 43.9032 -46.319 -1.6
    endloop
  endfacet
  facet normal 0 0 -1
    outer loop
      vertex 44.7716 45.1481 -1.6
      vertex 42 47 -1.6
      vertex 44.6458 45.4142 -1.6
    endloop
  endfacet
  facet normal 0 0 -1
    outer loop
      vertex 42 -47 -1.6
      vertex 43.9032 -46.319 -1.6
      vertex 43.6667 -46.4944 -1.6
    endloop
  endfacet
  facet normal 0 0 -1
    outer loop
      vertex 0.490086 42.0241 -1.6
      vertex 45 -44 -1.6
      vertex 42 -47 -1.6
    endloop
  endfacet
  facet normal 0 0 -1
    outer loop
      vertex 42 -47 -1.6
      vertex 43.6667 -46.4944 -1.6
      vertex 43.4142 -46.6458 -1.6
    endloop
  endfacet
  facet normal 0 0 -1
    outer loop
      vertex 44.4944 45.6667 -1.6
      vertex 42 47 -1.6
      vertex 44.319 45.9032 -1.6
    endloop
  endfacet
  facet normal 0 0 -1
    outer loop
      vertex 42 -47 -1.6
      vertex 43.4142 -46.6458 -1.6
      vertex 43.1481 -46.7716 -1.6
    endloop
  endfacet
  facet normal 0 0 -1
    outer loop
      vertex 43.9032 46.319 -1.6
      vertex 42 47 -1.6
      vertex 43.6667 46.4944 -1.6
    endloop
  endfacet
  facet normal 0 0 -1
    outer loop
      vertex 42 -47 -1.6
      vertex 43.1481 -46.7716 -1.6
      vertex 42.8708 -46.8708 -1.6
    endloop
  endfacet
  facet normal 0 0 -1
    outer loop
      vertex 43.6667 46.4944 -1.6
      vertex 42 47 -1.6
      vertex 43.4142 46.6458 -1.6
    endloop
  endfacet
  facet normal 0 0 -1
    outer loop
      vertex 42 -47 -1.6
      vertex 42.8708 -46.8708 -1.6
      vertex 42.5853 -46.9424 -1.6
    endloop
  endfacet
  facet normal 0 0 -1
    outer loop
      vertex 43.4142 46.6458 -1.6
      vertex 42 47 -1.6
      vertex 43.1481 46.7716 -1.6
    endloop
  endfacet
  facet normal 0 0 -1
    outer loop
      vertex 42 -47 -1.6
      vertex 42.5853 -46.9424 -1.6
      vertex 42.2941 -46.9855 -1.6
    endloop
  endfacet
  facet normal 0 0 -1
    outer loop
      vertex 43.1481 46.7716 -1.6
      vertex 42 47 -1.6
      vertex 42.8708 46.8708 -1.6
    endloop
  endfacet
  facet normal 0 0 -1
    outer loop
      vertex 42.8708 46.8708 -1.6
      vertex 42 47 -1.6
      vertex 42.5853 46.9424 -1.6
    endloop
  endfacet
  facet normal 0 0 -1
    outer loop
      vertex 42.5853 46.9424 -1.6
      vertex 42 47 -1.6
      vertex 42.2941 46.9855 -1.6
    endloop
  endfacet
  facet normal 0 0 -1
    outer loop
      vertex 44.1213 46.1213 -1.6
      vertex 42 47 -1.6
      vertex 43.9032 46.319 -1.6
    endloop
  endfacet
  facet normal -0 0 -1
    outer loop
      vertex 42 47 -1.6
      vertex 4.97592 46.5099 -1.6
      vertex 5 47 -1.6
    endloop
  endfacet
  facet normal 0 0 -1
    outer loop
      vertex 42 47 -1.6
      vertex 4.90393 46.0245 -1.6
      vertex 4.97592 46.5099 -1.6
    endloop
  endfacet
  facet normal 0 0 -1
    outer loop
      vertex 42 47 -1.6
      vertex 4.7847 45.5486 -1.6
      vertex 4.90393 46.0245 -1.6
    endloop
  endfacet
  facet normal 0 0 -1
    outer loop
      vertex 42 47 -1.6
      vertex 4.6194 45.0866 -1.6
      vertex 4.7847 45.5486 -1.6
    endloop
  endfacet
  facet normal 0 0 -1
    outer loop
      vertex 42 47 -1.6
      vertex 4.40961 44.643 -1.6
      vertex 4.6194 45.0866 -1.6
    endloop
  endfacet
  facet normal 0 0 -1
    outer loop
      vertex 42 47 -1.6
      vertex 4.15735 44.2221 -1.6
      vertex 4.40961 44.643 -1.6
    endloop
  endfacet
  facet normal 0 0 -1
    outer loop
      vertex 42 47 -1.6
      vertex 3.86505 43.828 -1.6
      vertex 4.15735 44.2221 -1.6
    endloop
  endfacet
  facet normal -0 0 -1
    outer loop
      vertex 45 44 -1.6
      vertex 3.86505 43.828 -1.6
      vertex 42 47 -1.6
    endloop
  endfacet
  facet normal 0 0 -1
    outer loop
      vertex 44.9424 44.5853 -1.6
      vertex 42 47 -1.6
      vertex 44.8708 44.8708 -1.6
    endloop
  endfacet
  facet normal 0 0 -1
    outer loop
      vertex 44.6458 45.4142 -1.6
      vertex 42 47 -1.6
      vertex 44.4944 45.6667 -1.6
    endloop
  endfacet
  facet normal 0 0 -1
    outer loop
      vertex 44.319 45.9032 -1.6
      vertex 42 47 -1.6
      vertex 44.1213 46.1213 -1.6
    endloop
  endfacet
  facet normal 0 0 -1
    outer loop
      vertex 45 -44 -1.6
      vertex 1.91342 42.3806 -1.6
      vertex 2.35698 42.5904 -1.6
    endloop
  endfacet
  facet normal 0 0 -1
    outer loop
      vertex 45 -44 -1.6
      vertex 1.45142 42.2153 -1.6
      vertex 1.91342 42.3806 -1.6
    endloop
  endfacet
  facet normal 0 0 -1
    outer loop
      vertex 45 -44 -1.6
      vertex 0.975451 42.0961 -1.6
      vertex 1.45142 42.2153 -1.6
    endloop
  endfacet
  facet normal 0 0 -1
    outer loop
      vertex 45 -44 -1.6
      vertex 0.490086 42.0241 -1.6
      vertex 0.975451 42.0961 -1.6
    endloop
  endfacet
  facet normal 0 0 -1
    outer loop
      vertex -31 -47 -1.6
      vertex 0.490086 42.0241 -1.6
      vertex 42 -47 -1.6
    endloop
  endfacet
  facet normal 0 0 -1
    outer loop
      vertex 0.490086 42.0241 -1.6
      vertex -31 -47 -1.6
      vertex 0 42 -1.6
    endloop
  endfacet
  facet normal -0 0 -1
    outer loop
      vertex 0 42 -1.6
      vertex -31 -47 -1.6
      vertex -0.490086 42.0241 -1.6
    endloop
  endfacet
  facet normal 0 0 -1
    outer loop
      vertex -45 -33 -1.6
      vertex -0.490086 42.0241 -1.6
      vertex -31 -47 -1.6
    endloop
  endfacet
  facet normal -0 0 -1
    outer loop
      vertex -0.490086 42.0241 -1.6
      vertex -45 -33 -1.6
      vertex -0.975451 42.0961 -1.6
    endloop
  endfacet
  facet normal -0 0 -1
    outer loop
      vertex -0.975451 42.0961 -1.6
      vertex -45 -33 -1.6
      vertex -1.45142 42.2153 -1.6
    endloop
  endfacet
  facet normal -0 0 -1
    outer loop
      vertex -1.45142 42.2153 -1.6
      vertex -45 -33 -1.6
      vertex -1.91342 42.3806 -1.6
    endloop
  endfacet
  facet normal -0 0 -1
    outer loop
      vertex -1.91342 42.3806 -1.6
      vertex -45 -33 -1.6
      vertex -2.35698 42.5904 -1.6
    endloop
  endfacet
  facet normal -0 0 -1
    outer loop
      vertex -2.35698 42.5904 -1.6
      vertex -45 -33 -1.6
      vertex -2.77785 42.8427 -1.6
    endloop
  endfacet
  facet normal 0 0 -1
    outer loop
      vertex -45 44 -1.6
      vertex -2.77785 42.8427 -1.6
      vertex -45 -33 -1.6
    endloop
  endfacet
  facet normal 0 0 -1
    outer loop
      vertex -2.77785 42.8427 -1.6
      vertex -45 44 -1.6
      vertex -3.17197 43.1349 -1.6
    endloop
  endfacet
  facet normal 0 0 -1
    outer loop
      vertex -3.17197 43.1349 -1.6
      vertex -45 44 -1.6
      vertex -3.53553 43.4645 -1.6
    endloop
  endfacet
  facet normal 0 0 -1
    outer loop
      vertex -3.53553 43.4645 -1.6
      vertex -45 44 -1.6
      vertex -3.86505 43.828 -1.6
    endloop
  endfacet
  facet normal 0 -0 -1
    outer loop
      vertex -42 47 -1.6
      vertex -3.86505 43.828 -1.6
      vertex -45 44 -1.6
    endloop
  endfacet
  facet normal 0 0 -1
    outer loop
      vertex -3.86505 43.828 -1.6
      vertex -42 47 -1.6
      vertex -4.15735 44.2221 -1.6
    endloop
  endfacet
  facet normal 0 0 -1
    outer loop
      vertex -4.15735 44.2221 -1.6
      vertex -42 47 -1.6
      vertex -4.40961 44.643 -1.6
    endloop
  endfacet
  facet normal 0 0 -1
    outer loop
      vertex -4.40961 44.643 -1.6
      vertex -42 47 -1.6
      vertex -4.6194 45.0866 -1.6
    endloop
  endfacet
  facet normal 0 0 -1
    outer loop
      vertex -4.6194 45.0866 -1.6
      vertex -42 47 -1.6
      vertex -4.7847 45.5486 -1.6
    endloop
  endfacet
  facet normal 0 0 -1
    outer loop
      vertex -4.7847 45.5486 -1.6
      vertex -42 47 -1.6
      vertex -4.90393 46.0245 -1.6
    endloop
  endfacet
  facet normal 0 0 -1
    outer loop
      vertex -4.90393 46.0245 -1.6
      vertex -42 47 -1.6
      vertex -4.97592 46.5099 -1.6
    endloop
  endfacet
  facet normal 0 0 -1
    outer loop
      vertex -4.97592 46.5099 -1.6
      vertex -42 47 -1.6
      vertex -5 47 -1.6
    endloop
  endfacet
  facet normal 0 0 -1
    outer loop
      vertex -42 47 -1.6
      vertex -45 44 -1.6
      vertex -42.2941 46.9855 -1.6
    endloop
  endfacet
  facet normal 0 0 -1
    outer loop
      vertex -42.5853 46.9424 -1.6
      vertex -45 44 -1.6
      vertex -42.8708 46.8708 -1.6
    endloop
  endfacet
  facet normal 0 0 -1
    outer loop
      vertex -42.8708 46.8708 -1.6
      vertex -45 44 -1.6
      vertex -43.1481 46.7716 -1.6
    endloop
  endfacet
  facet normal 0 0 -1
    outer loop
      vertex -43.1481 46.7716 -1.6
      vertex -45 44 -1.6
      vertex -43.4142 46.6458 -1.6
    endloop
  endfacet
  facet normal 0 0 -1
    outer loop
      vertex -43.4142 46.6458 -1.6
      vertex -45 44 -1.6
      vertex -43.6667 46.4944 -1.6
    endloop
  endfacet
  facet normal 0 0 -1
    outer loop
      vertex -43.6667 46.4944 -1.6
      vertex -45 44 -1.6
      vertex -43.9032 46.319 -1.6
    endloop
  endfacet
  facet normal 0 0 -1
    outer loop
      vertex -43.9032 46.319 -1.6
      vertex -45 44 -1.6
      vertex -44.1213 46.1213 -1.6
    endloop
  endfacet
  facet normal 0 0 -1
    outer loop
      vertex -44.1213 46.1213 -1.6
      vertex -45 44 -1.6
      vertex -44.319 45.9032 -1.6
    endloop
  endfacet
  facet normal 0 0 -1
    outer loop
      vertex -44.319 45.9032 -1.6
      vertex -45 44 -1.6
      vertex -44.4944 45.6667 -1.6
    endloop
  endfacet
  facet normal 0 0 -1
    outer loop
      vertex -44.4944 45.6667 -1.6
      vertex -45 44 -1.6
      vertex -44.6458 45.4142 -1.6
    endloop
  endfacet
  facet normal 0 0 -1
    outer loop
      vertex -44.6458 45.4142 -1.6
      vertex -45 44 -1.6
      vertex -44.7716 45.1481 -1.6
    endloop
  endfacet
  facet normal 0 0 -1
    outer loop
      vertex -44.7716 45.1481 -1.6
      vertex -45 44 -1.6
      vertex -44.8708 44.8708 -1.6
    endloop
  endfacet
  facet normal 0 0 -1
    outer loop
      vertex -44.8708 44.8708 -1.6
      vertex -45 44 -1.6
      vertex -44.9424 44.5853 -1.6
    endloop
  endfacet
  facet normal 0 0 -1
    outer loop
      vertex -42.2941 46.9855 -1.6
      vertex -45 44 -1.6
      vertex -42.5853 46.9424 -1.6
    endloop
  endfacet
  facet normal 0 0 -1
    outer loop
      vertex -44.9424 44.5853 -1.6
      vertex -45 44 -1.6
      vertex -44.9855 44.2941 -1.6
    endloop
  endfacet
  facet normal 0.595699 -0.803208 0
    outer loop
      vertex 43.6667 -46.4944 -1.6
      vertex 43.9032 -46.319 0
      vertex 43.6667 -46.4944 0
    endloop
  endfacet
  facet normal 0.595699 -0.803208 0
    outer loop
      vertex 43.9032 -46.319 0
      vertex 43.6667 -46.4944 -1.6
      vertex 43.9032 -46.319 -1.6
    endloop
  endfacet
  facet normal 0.740908 0.671607 0
    outer loop
      vertex 44.319 45.9032 0
      vertex 44.1213 46.1213 -1.6
      vertex 44.1213 46.1213 0
    endloop
  endfacet
  facet normal 0.740908 0.671607 0
    outer loop
      vertex 44.1213 46.1213 -1.6
      vertex 44.319 45.9032 0
      vertex 44.319 45.9032 -1.6
    endloop
  endfacet
  facet normal 0.969962 -0.243255 0
    outer loop
      vertex 44.8708 -44.8708 0
      vertex 44.9424 -44.5853 -1.6
      vertex 44.9424 -44.5853 0
    endloop
  endfacet
  facet normal 0.969962 -0.243255 0
    outer loop
      vertex 44.9424 -44.5853 -1.6
      vertex 44.8708 -44.8708 0
      vertex 44.8708 -44.8708 -1.6
    endloop
  endfacet
  facet normal 0.941565 -0.336831 0
    outer loop
      vertex 44.7716 -45.1481 0
      vertex 44.8708 -44.8708 -1.6
      vertex 44.8708 -44.8708 0
    endloop
  endfacet
  facet normal 0.941565 -0.336831 0
    outer loop
      vertex 44.8708 -44.8708 -1.6
      vertex 44.7716 -45.1481 0
      vertex 44.7716 -45.1481 -1.6
    endloop
  endfacet
  facet normal 0.0492431 -0.998787 0
    outer loop
      vertex 42 -47 -1.6
      vertex 42.2941 -46.9855 0
      vertex 42 -47 0
    endloop
  endfacet
  facet normal 0.0492431 -0.998787 0
    outer loop
      vertex 42.2941 -46.9855 0
      vertex 42 -47 -1.6
      vertex 42.2941 -46.9855 -1.6
    endloop
  endfacet
  facet normal 0.989224 0.146413 0
    outer loop
      vertex 44.9855 44.2941 0
      vertex 44.9424 44.5853 -1.6
      vertex 44.9424 44.5853 0
    endloop
  endfacet
  facet normal 0.989224 0.146413 0
    outer loop
      vertex 44.9424 44.5853 -1.6
      vertex 44.9855 44.2941 0
      vertex 44.9855 44.2941 -1.6
    endloop
  endfacet
  facet normal 0.146413 -0.989224 0
    outer loop
      vertex 42.2941 -46.9855 -1.6
      vertex 42.5853 -46.9424 0
      vertex 42.2941 -46.9855 0
    endloop
  endfacet
  facet normal 0.146413 -0.989224 0
    outer loop
      vertex 42.5853 -46.9424 0
      vertex 42.2941 -46.9855 -1.6
      vertex 42.5853 -46.9424 -1.6
    endloop
  endfacet
  facet normal -0.941565 0.336831 0
    outer loop
      vertex -44.8708 44.8708 -1.6
      vertex -44.7716 45.1481 0
      vertex -44.7716 45.1481 -1.6
    endloop
  endfacet
  facet normal -0.941565 0.336831 0
    outer loop
      vertex -44.7716 45.1481 0
      vertex -44.8708 44.8708 -1.6
      vertex -44.8708 44.8708 0
    endloop
  endfacet
  facet normal -0.989224 0.146413 0
    outer loop
      vertex -44.9855 44.2941 -1.6
      vertex -44.9424 44.5853 0
      vertex -44.9424 44.5853 -1.6
    endloop
  endfacet
  facet normal -0.989224 0.146413 0
    outer loop
      vertex -44.9424 44.5853 0
      vertex -44.9855 44.2941 -1.6
      vertex -44.9855 44.2941 0
    endloop
  endfacet
  facet normal -0.969962 0.243255 0
    outer loop
      vertex -44.9424 44.5853 -1.6
      vertex -44.8708 44.8708 0
      vertex -44.8708 44.8708 -1.6
    endloop
  endfacet
  facet normal -0.969962 0.243255 0
    outer loop
      vertex -44.8708 44.8708 0
      vertex -44.9424 44.5853 -1.6
      vertex -44.9424 44.5853 0
    endloop
  endfacet
  facet normal 0.243255 -0.969962 0
    outer loop
      vertex 42.5853 -46.9424 -1.6
      vertex 42.8708 -46.8708 0
      vertex 42.5853 -46.9424 0
    endloop
  endfacet
  facet normal 0.243255 -0.969962 0
    outer loop
      vertex 42.8708 -46.8708 0
      vertex 42.5853 -46.9424 -1.6
      vertex 42.8708 -46.8708 -1.6
    endloop
  endfacet
  facet normal 0 0 1
    outer loop
      vertex 41.75 43.75 1.8
      vertex 43.15 43.9548 1.8
      vertex 43.1422 44.1125 1.8
    endloop
  endfacet
  facet normal 0 0 1
    outer loop
      vertex 43.15 43.9548 1.8
      vertex 41.75 43.75 1.8
      vertex 43.15 -43.9548 1.8
    endloop
  endfacet
  facet normal 0 0 1
    outer loop
      vertex 41.75 43.75 1.8
      vertex 43.1422 44.1125 1.8
      vertex 43.1257 44.2239 1.8
    endloop
  endfacet
  facet normal -0 0 1
    outer loop
      vertex 41.75 -43.75 1.8
      vertex 43.15 -43.9548 1.8
      vertex 41.75 43.75 1.8
    endloop
  endfacet
  facet normal 0 0 1
    outer loop
      vertex 41.75 43.75 1.8
      vertex 43.1257 44.2239 1.8
      vertex 43.0984 44.3331 1.8
    endloop
  endfacet
  facet normal 0 0 1
    outer loop
      vertex 43.15 -43.9548 1.8
      vertex 41.75 -43.75 1.8
      vertex 43.1422 -44.1125 1.8
    endloop
  endfacet
  facet normal 0 0 1
    outer loop
      vertex 41.75 43.75 1.8
      vertex 43.0984 44.3331 1.8
      vertex 43.0604 44.4393 1.8
    endloop
  endfacet
  facet normal 0 0 1
    outer loop
      vertex 43.1422 -44.1125 1.8
      vertex 41.75 -43.75 1.8
      vertex 43.1257 -44.2239 1.8
    endloop
  endfacet
  facet normal 0 0 1
    outer loop
      vertex 41.75 43.75 1.8
      vertex 43.0604 44.4393 1.8
      vertex 43.0122 44.5412 1.8
    endloop
  endfacet
  facet normal 0 0 1
    outer loop
      vertex 43.1257 -44.2239 1.8
      vertex 41.75 -43.75 1.8
      vertex 43.0984 -44.3331 1.8
    endloop
  endfacet
  facet normal 0 0 1
    outer loop
      vertex 41.75 43.75 1.8
      vertex 43.0122 44.5412 1.8
      vertex 42.9544 44.6376 1.8
    endloop
  endfacet
  facet normal 0 0 1
    outer loop
      vertex 43.0984 -44.3331 1.8
      vertex 41.75 -43.75 1.8
      vertex 43.0604 -44.4393 1.8
    endloop
  endfacet
  facet normal 0 0 1
    outer loop
      vertex 41.75 43.75 1.8
      vertex 42.9544 44.6376 1.8
      vertex 42.8873 44.7281 1.8
    endloop
  endfacet
  facet normal 0 0 1
    outer loop
      vertex 43.0604 -44.4393 1.8
      vertex 41.75 -43.75 1.8
      vertex 43.0122 -44.5412 1.8
    endloop
  endfacet
  facet normal 0 0 1
    outer loop
      vertex 41.75 43.75 1.8
      vertex 42.8873 44.7281 1.8
      vertex 42.8116 44.8116 1.8
    endloop
  endfacet
  facet normal 0 0 1
    outer loop
      vertex 43.0122 -44.5412 1.8
      vertex 41.75 -43.75 1.8
      vertex 42.9544 -44.6376 1.8
    endloop
  endfacet
  facet normal 0 0 1
    outer loop
      vertex 41.75 43.75 1.8
      vertex 42.8116 44.8116 1.8
      vertex 42.7281 44.8873 1.8
    endloop
  endfacet
  facet normal 0 0 1
    outer loop
      vertex 42.9544 -44.6376 1.8
      vertex 41.75 -43.75 1.8
      vertex 42.8873 -44.7281 1.8
    endloop
  endfacet
  facet normal 0 0 1
    outer loop
      vertex 41.75 43.75 1.8
      vertex 42.7281 44.8873 1.8
      vertex 42.6376 44.9544 1.8
    endloop
  endfacet
  facet normal 0 0 1
    outer loop
      vertex 42.8873 -44.7281 1.8
      vertex 41.75 -43.75 1.8
      vertex 42.8116 -44.8116 1.8
    endloop
  endfacet
  facet normal 0 0 1
    outer loop
      vertex 41.75 43.75 1.8
      vertex 42.6376 44.9544 1.8
      vertex 42.5412 45.0122 1.8
    endloop
  endfacet
  facet normal 0 0 1
    outer loop
      vertex 42.8116 -44.8116 1.8
      vertex 41.75 -43.75 1.8
      vertex 42.7281 -44.8873 1.8
    endloop
  endfacet
  facet normal 0 0 1
    outer loop
      vertex 41.75 43.75 1.8
      vertex 42.5412 45.0122 1.8
      vertex 42.4393 45.0604 1.8
    endloop
  endfacet
  facet normal 0 0 1
    outer loop
      vertex 42.7281 -44.8873 1.8
      vertex 41.75 -43.75 1.8
      vertex 42.6376 -44.9544 1.8
    endloop
  endfacet
  facet normal 0 0 1
    outer loop
      vertex 41.75 43.75 1.8
      vertex 42.4393 45.0604 1.8
      vertex 42.3331 45.0984 1.8
    endloop
  endfacet
  facet normal 0 0 1
    outer loop
      vertex 42.6376 -44.9544 1.8
      vertex 41.75 -43.75 1.8
      vertex 42.5412 -45.0122 1.8
    endloop
  endfacet
  facet normal 0 0 1
    outer loop
      vertex 41.75 43.75 1.8
      vertex 42.3331 45.0984 1.8
      vertex 42.2239 45.1257 1.8
    endloop
  endfacet
  facet normal 0 0 1
    outer loop
      vertex 42.5412 -45.0122 1.8
      vertex 41.75 -43.75 1.8
      vertex 42.4393 -45.0604 1.8
    endloop
  endfacet
  facet normal 0 0 1
    outer loop
      vertex 41.75 43.75 1.8
      vertex 42.2239 45.1257 1.8
      vertex 42.1125 45.1422 1.8
    endloop
  endfacet
  facet normal 0 0 1
    outer loop
      vertex 42.4393 -45.0604 1.8
      vertex 41.75 -43.75 1.8
      vertex 42.3331 -45.0984 1.8
    endloop
  endfacet
  facet normal 0 0 1
    outer loop
      vertex 41.75 43.75 1.8
      vertex 42.1125 45.1422 1.8
      vertex 41.9548 45.15 1.8
    endloop
  endfacet
  facet normal 0 0 1
    outer loop
      vertex 42.3331 -45.0984 1.8
      vertex 41.75 -43.75 1.8
      vertex 42.2239 -45.1257 1.8
    endloop
  endfacet
  facet normal 0 0 1
    outer loop
      vertex 42.2239 -45.1257 1.8
      vertex 41.75 -43.75 1.8
      vertex 42.1125 -45.1422 1.8
    endloop
  endfacet
  facet normal 0 0 1
    outer loop
      vertex 41.9548 45.15 1.8
      vertex -41.75 43.75 1.8
      vertex 41.75 43.75 1.8
    endloop
  endfacet
  facet normal -0 0 1
    outer loop
      vertex -42.1125 45.1422 1.8
      vertex -41.75 43.75 1.8
      vertex -41.9548 45.15 1.8
    endloop
  endfacet
  facet normal -0 0 1
    outer loop
      vertex -41.9548 45.15 1.8
      vertex -41.75 43.75 1.8
      vertex 41.9548 45.15 1.8
    endloop
  endfacet
  facet normal 0 0 1
    outer loop
      vertex 42.1125 -45.1422 1.8
      vertex 41.75 -43.75 1.8
      vertex 41.9548 -45.15 1.8
    endloop
  endfacet
  facet normal -0 0 1
    outer loop
      vertex -29.6538 -43.75 1.8
      vertex 41.9548 -45.15 1.8
      vertex 41.75 -43.75 1.8
    endloop
  endfacet
  facet normal 0 0 1
    outer loop
      vertex -29.6538 -43.75 1.8
      vertex -30.2337 -45.15 1.8
      vertex 41.9548 -45.15 1.8
    endloop
  endfacet
  facet normal 0 0 1
    outer loop
      vertex -41.75 -31.6538 1.8
      vertex -30.2337 -45.15 1.8
      vertex -29.6538 -43.75 1.8
    endloop
  endfacet
  facet normal -0 0 1
    outer loop
      vertex -42.2239 45.1257 1.8
      vertex -41.75 43.75 1.8
      vertex -42.1125 45.1422 1.8
    endloop
  endfacet
  facet normal -0 0 1
    outer loop
      vertex -42.3331 45.0984 1.8
      vertex -41.75 43.75 1.8
      vertex -42.2239 45.1257 1.8
    endloop
  endfacet
  facet normal -0 0 1
    outer loop
      vertex -42.4393 45.0604 1.8
      vertex -41.75 43.75 1.8
      vertex -42.3331 45.0984 1.8
    endloop
  endfacet
  facet normal -0 0 1
    outer loop
      vertex -42.5412 45.0122 1.8
      vertex -41.75 43.75 1.8
      vertex -42.4393 45.0604 1.8
    endloop
  endfacet
  facet normal -0 0 1
    outer loop
      vertex -42.6376 44.9544 1.8
      vertex -41.75 43.75 1.8
      vertex -42.5412 45.0122 1.8
    endloop
  endfacet
  facet normal -0 0 1
    outer loop
      vertex -42.7281 44.8873 1.8
      vertex -41.75 43.75 1.8
      vertex -42.6376 44.9544 1.8
    endloop
  endfacet
  facet normal -0 0 1
    outer loop
      vertex -42.8116 44.8116 1.8
      vertex -41.75 43.75 1.8
      vertex -42.7281 44.8873 1.8
    endloop
  endfacet
  facet normal -0 0 1
    outer loop
      vertex -42.8873 44.7281 1.8
      vertex -41.75 43.75 1.8
      vertex -42.8116 44.8116 1.8
    endloop
  endfacet
  facet normal -0 0 1
    outer loop
      vertex -42.9544 44.6376 1.8
      vertex -41.75 43.75 1.8
      vertex -42.8873 44.7281 1.8
    endloop
  endfacet
  facet normal -0 0 1
    outer loop
      vertex -43.0122 44.5412 1.8
      vertex -41.75 43.75 1.8
      vertex -42.9544 44.6376 1.8
    endloop
  endfacet
  facet normal -0 0 1
    outer loop
      vertex -43.0604 44.4393 1.8
      vertex -41.75 43.75 1.8
      vertex -43.0122 44.5412 1.8
    endloop
  endfacet
  facet normal -0 0 1
    outer loop
      vertex -43.0984 44.3331 1.8
      vertex -41.75 43.75 1.8
      vertex -43.0604 44.4393 1.8
    endloop
  endfacet
  facet normal -0 0 1
    outer loop
      vertex -43.1257 44.2239 1.8
      vertex -41.75 43.75 1.8
      vertex -43.0984 44.3331 1.8
    endloop
  endfacet
  facet normal 0 0 1
    outer loop
      vertex -41.75 43.75 1.8
      vertex -43.1257 44.2239 1.8
      vertex -43.1422 44.1125 1.8
    endloop
  endfacet
  facet normal 0 0 1
    outer loop
      vertex -41.75 43.75 1.8
      vertex -43.1422 44.1125 1.8
      vertex -43.15 43.9548 1.8
    endloop
  endfacet
  facet normal 0 0 1
    outer loop
      vertex -41.75 43.75 1.8
      vertex -43.15 43.9548 1.8
      vertex -41.75 -31.6538 1.8
    endloop
  endfacet
  facet normal 0 0 1
    outer loop
      vertex -41.75 -31.6538 1.8
      vertex -43.15 -32.2337 1.8
      vertex -30.2337 -45.15 1.8
    endloop
  endfacet
  facet normal 0 0 1
    outer loop
      vertex -43.15 -32.2337 1.8
      vertex -41.75 -31.6538 1.8
      vertex -43.15 43.9548 1.8
    endloop
  endfacet
  facet normal 0.146516 0.989208 -0
    outer loop
      vertex 42.2239 45.1257 0
      vertex 42.1125 45.1422 1.8
      vertex 42.2239 45.1257 1.8
    endloop
  endfacet
  facet normal 0.146516 0.989208 0
    outer loop
      vertex 42.1125 45.1422 1.8
      vertex 42.2239 45.1257 0
      vertex 42.1125 45.1422 0
    endloop
  endfacet
  facet normal 0.242536 0.970143 -0
    outer loop
      vertex 42.3331 45.0984 0
      vertex 42.2239 45.1257 1.8
      vertex 42.3331 45.0984 1.8
    endloop
  endfacet
  facet normal 0.242536 0.970143 0
    outer loop
      vertex 42.2239 45.1257 1.8
      vertex 42.3331 45.0984 0
      vertex 42.2239 45.1257 0
    endloop
  endfacet
  facet normal 0.336898 0.941541 -0
    outer loop
      vertex 42.4393 45.0604 0
      vertex 42.3331 45.0984 1.8
      vertex 42.4393 45.0604 1.8
    endloop
  endfacet
  facet normal 0.336898 0.941541 0
    outer loop
      vertex 42.3331 45.0984 1.8
      vertex 42.4393 45.0604 0
      vertex 42.3331 45.0984 0
    endloop
  endfacet
  facet normal 0.427591 0.903973 -0
    outer loop
      vertex 42.5412 45.0122 0
      vertex 42.4393 45.0604 1.8
      vertex 42.5412 45.0122 1.8
    endloop
  endfacet
  facet normal 0.427591 0.903973 0
    outer loop
      vertex 42.4393 45.0604 1.8
      vertex 42.5412 45.0122 0
      vertex 42.4393 45.0604 0
    endloop
  endfacet
  facet normal 0.514234 0.85765 -0
    outer loop
      vertex 42.6376 44.9544 0
      vertex 42.5412 45.0122 1.8
      vertex 42.6376 44.9544 1.8
    endloop
  endfacet
  facet normal 0.514234 0.85765 0
    outer loop
      vertex 42.5412 45.0122 1.8
      vertex 42.6376 44.9544 0
      vertex 42.5412 45.0122 0
    endloop
  endfacet
  facet normal 0.595588 0.80329 -0
    outer loop
      vertex 42.7281 44.8873 0
      vertex 42.6376 44.9544 1.8
      vertex 42.7281 44.8873 1.8
    endloop
  endfacet
  facet normal 0.595588 0.80329 0
    outer loop
      vertex 42.6376 44.9544 1.8
      vertex 42.7281 44.8873 0
      vertex 42.6376 44.9544 0
    endloop
  endfacet
  facet normal 0.671656 0.740863 -0
    outer loop
      vertex 42.8116 44.8116 0
      vertex 42.7281 44.8873 1.8
      vertex 42.8116 44.8116 1.8
    endloop
  endfacet
  facet normal 0.671656 0.740863 0
    outer loop
      vertex 42.7281 44.8873 1.8
      vertex 42.8116 44.8116 0
      vertex 42.7281 44.8873 0
    endloop
  endfacet
  facet normal 0.740863 0.671656 0
    outer loop
      vertex 42.8873 44.7281 1.8
      vertex 42.8116 44.8116 0
      vertex 42.8116 44.8116 1.8
    endloop
  endfacet
  facet normal 0.740863 0.671656 0
    outer loop
      vertex 42.8116 44.8116 0
      vertex 42.8873 44.7281 1.8
      vertex 42.8873 44.7281 0
    endloop
  endfacet
  facet normal 0.80329 0.595588 0
    outer loop
      vertex 42.9544 44.6376 1.8
      vertex 42.8873 44.7281 0
      vertex 42.8873 44.7281 1.8
    endloop
  endfacet
  facet normal 0.80329 0.595588 0
    outer loop
      vertex 42.8873 44.7281 0
      vertex 42.9544 44.6376 1.8
      vertex 42.9544 44.6376 0
    endloop
  endfacet
  facet normal 0.85765 0.514234 0
    outer loop
      vertex 43.0122 44.5412 1.8
      vertex 42.9544 44.6376 0
      vertex 42.9544 44.6376 1.8
    endloop
  endfacet
  facet normal 0.85765 0.514234 0
    outer loop
      vertex 42.9544 44.6376 0
      vertex 43.0122 44.5412 1.8
      vertex 43.0122 44.5412 0
    endloop
  endfacet
  facet normal 0.903973 0.427591 0
    outer loop
      vertex 43.0604 44.4393 1.8
      vertex 43.0122 44.5412 0
      vertex 43.0122 44.5412 1.8
    endloop
  endfacet
  facet normal 0.903973 0.427591 0
    outer loop
      vertex 43.0122 44.5412 0
      vertex 43.0604 44.4393 1.8
      vertex 43.0604 44.4393 0
    endloop
  endfacet
  facet normal 0.941541 0.336898 0
    outer loop
      vertex 43.0984 44.3331 1.8
      vertex 43.0604 44.4393 0
      vertex 43.0604 44.4393 1.8
    endloop
  endfacet
  facet normal 0.941541 0.336898 0
    outer loop
      vertex 43.0604 44.4393 0
      vertex 43.0984 44.3331 1.8
      vertex 43.0984 44.3331 0
    endloop
  endfacet
  facet normal 0.970143 0.242536 0
    outer loop
      vertex 43.1257 44.2239 1.8
      vertex 43.0984 44.3331 0
      vertex 43.0984 44.3331 1.8
    endloop
  endfacet
  facet normal 0.970143 0.242536 0
    outer loop
      vertex 43.0984 44.3331 0
      vertex 43.1257 44.2239 1.8
      vertex 43.1257 44.2239 0
    endloop
  endfacet
  facet normal 0.989208 0.146516 0
    outer loop
      vertex 43.1422 44.1125 1.8
      vertex 43.1257 44.2239 0
      vertex 43.1257 44.2239 1.8
    endloop
  endfacet
  facet normal 0.989208 0.146516 0
    outer loop
      vertex 43.1257 44.2239 0
      vertex 43.1422 44.1125 1.8
      vertex 43.1422 44.1125 0
    endloop
  endfacet
  facet normal 0.998779 0.0494006 0
    outer loop
      vertex 43.15 43.9548 1.8
      vertex 43.1422 44.1125 0
      vertex 43.1422 44.1125 1.8
    endloop
  endfacet
  facet normal 0.998779 0.0494006 0
    outer loop
      vertex 43.1422 44.1125 0
      vertex 43.15 43.9548 1.8
      vertex 43.15 43.9548 0
    endloop
  endfacet
  facet normal 1 -0 0
    outer loop
      vertex 43.15 -43.9548 1.8
      vertex 43.15 43.9548 0
      vertex 43.15 43.9548 1.8
    endloop
  endfacet
  facet normal 1 0 0
    outer loop
      vertex 43.15 43.9548 0
      vertex 43.15 -43.9548 1.8
      vertex 43.15 -43.9548 0
    endloop
  endfacet
  facet normal 0.998779 -0.0494006 0
    outer loop
      vertex 43.1422 -44.1125 1.8
      vertex 43.15 -43.9548 0
      vertex 43.15 -43.9548 1.8
    endloop
  endfacet
  facet normal 0.998779 -0.0494006 0
    outer loop
      vertex 43.15 -43.9548 0
      vertex 43.1422 -44.1125 1.8
      vertex 43.1422 -44.1125 0
    endloop
  endfacet
  facet normal 0.989208 -0.146516 0
    outer loop
      vertex 43.1257 -44.2239 1.8
      vertex 43.1422 -44.1125 0
      vertex 43.1422 -44.1125 1.8
    endloop
  endfacet
  facet normal 0.989208 -0.146516 0
    outer loop
      vertex 43.1422 -44.1125 0
      vertex 43.1257 -44.2239 1.8
      vertex 43.1257 -44.2239 0
    endloop
  endfacet
  facet normal 0.970143 -0.242536 0
    outer loop
      vertex 43.0984 -44.3331 1.8
      vertex 43.1257 -44.2239 0
      vertex 43.1257 -44.2239 1.8
    endloop
  endfacet
  facet normal 0.970143 -0.242536 0
    outer loop
      vertex 43.1257 -44.2239 0
      vertex 43.0984 -44.3331 1.8
      vertex 43.0984 -44.3331 0
    endloop
  endfacet
  facet normal 0.941541 -0.336898 0
    outer loop
      vertex 43.0604 -44.4393 1.8
      vertex 43.0984 -44.3331 0
      vertex 43.0984 -44.3331 1.8
    endloop
  endfacet
  facet normal 0.941541 -0.336898 0
    outer loop
      vertex 43.0984 -44.3331 0
      vertex 43.0604 -44.4393 1.8
      vertex 43.0604 -44.4393 0
    endloop
  endfacet
  facet normal 0.903973 -0.427591 0
    outer loop
      vertex 43.0122 -44.5412 1.8
      vertex 43.0604 -44.4393 0
      vertex 43.0604 -44.4393 1.8
    endloop
  endfacet
  facet normal 0.903973 -0.427591 0
    outer loop
      vertex 43.0604 -44.4393 0
      vertex 43.0122 -44.5412 1.8
      vertex 43.0122 -44.5412 0
    endloop
  endfacet
  facet normal 0.85765 -0.514234 0
    outer loop
      vertex 42.9544 -44.6376 1.8
      vertex 43.0122 -44.5412 0
      vertex 43.0122 -44.5412 1.8
    endloop
  endfacet
  facet normal 0.85765 -0.514234 0
    outer loop
      vertex 43.0122 -44.5412 0
      vertex 42.9544 -44.6376 1.8
      vertex 42.9544 -44.6376 0
    endloop
  endfacet
  facet normal 0.80329 -0.595588 0
    outer loop
      vertex 42.8873 -44.7281 1.8
      vertex 42.9544 -44.6376 0
      vertex 42.9544 -44.6376 1.8
    endloop
  endfacet
  facet normal 0.80329 -0.595588 0
    outer loop
      vertex 42.9544 -44.6376 0
      vertex 42.8873 -44.7281 1.8
      vertex 42.8873 -44.7281 0
    endloop
  endfacet
  facet normal 0.740863 -0.671656 0
    outer loop
      vertex 42.8116 -44.8116 1.8
      vertex 42.8873 -44.7281 0
      vertex 42.8873 -44.7281 1.8
    endloop
  endfacet
  facet normal 0.740863 -0.671656 0
    outer loop
      vertex 42.8873 -44.7281 0
      vertex 42.8116 -44.8116 1.8
      vertex 42.8116 -44.8116 0
    endloop
  endfacet
  facet normal 0.671656 -0.740863 0
    outer loop
      vertex 42.7281 -44.8873 0
      vertex 42.8116 -44.8116 1.8
      vertex 42.7281 -44.8873 1.8
    endloop
  endfacet
  facet normal 0.671656 -0.740863 0
    outer loop
      vertex 42.8116 -44.8116 1.8
      vertex 42.7281 -44.8873 0
      vertex 42.8116 -44.8116 0
    endloop
  endfacet
  facet normal 0.595588 -0.80329 0
    outer loop
      vertex 42.6376 -44.9544 0
      vertex 42.7281 -44.8873 1.8
      vertex 42.6376 -44.9544 1.8
    endloop
  endfacet
  facet normal 0.595588 -0.80329 0
    outer loop
      vertex 42.7281 -44.8873 1.8
      vertex 42.6376 -44.9544 0
      vertex 42.7281 -44.8873 0
    endloop
  endfacet
  facet normal 0.514234 -0.85765 0
    outer loop
      vertex 42.5412 -45.0122 0
      vertex 42.6376 -44.9544 1.8
      vertex 42.5412 -45.0122 1.8
    endloop
  endfacet
  facet normal 0.514234 -0.85765 0
    outer loop
      vertex 42.6376 -44.9544 1.8
      vertex 42.5412 -45.0122 0
      vertex 42.6376 -44.9544 0
    endloop
  endfacet
  facet normal 0.427591 -0.903973 0
    outer loop
      vertex 42.4393 -45.0604 0
      vertex 42.5412 -45.0122 1.8
      vertex 42.4393 -45.0604 1.8
    endloop
  endfacet
  facet normal 0.427591 -0.903973 0
    outer loop
      vertex 42.5412 -45.0122 1.8
      vertex 42.4393 -45.0604 0
      vertex 42.5412 -45.0122 0
    endloop
  endfacet
  facet normal 0.336898 -0.941541 0
    outer loop
      vertex 42.3331 -45.0984 0
      vertex 42.4393 -45.0604 1.8
      vertex 42.3331 -45.0984 1.8
    endloop
  endfacet
  facet normal 0.336898 -0.941541 0
    outer loop
      vertex 42.4393 -45.0604 1.8
      vertex 42.3331 -45.0984 0
      vertex 42.4393 -45.0604 0
    endloop
  endfacet
  facet normal 0.242536 -0.970143 0
    outer loop
      vertex 42.2239 -45.1257 0
      vertex 42.3331 -45.0984 1.8
      vertex 42.2239 -45.1257 1.8
    endloop
  endfacet
  facet normal 0.242536 -0.970143 0
    outer loop
      vertex 42.3331 -45.0984 1.8
      vertex 42.2239 -45.1257 0
      vertex 42.3331 -45.0984 0
    endloop
  endfacet
  facet normal 0.146516 -0.989208 0
    outer loop
      vertex 42.1125 -45.1422 0
      vertex 42.2239 -45.1257 1.8
      vertex 42.1125 -45.1422 1.8
    endloop
  endfacet
  facet normal 0.146516 -0.989208 0
    outer loop
      vertex 42.2239 -45.1257 1.8
      vertex 42.1125 -45.1422 0
      vertex 42.2239 -45.1257 0
    endloop
  endfacet
  facet normal 0.0494006 -0.998779 0
    outer loop
      vertex 41.9548 -45.15 0
      vertex 42.1125 -45.1422 1.8
      vertex 41.9548 -45.15 1.8
    endloop
  endfacet
  facet normal 0.0494006 -0.998779 0
    outer loop
      vertex 42.1125 -45.1422 1.8
      vertex 41.9548 -45.15 0
      vertex 42.1125 -45.1422 0
    endloop
  endfacet
  facet normal 0 -1 0
    outer loop
      vertex -30.2337 -45.15 0
      vertex 41.9548 -45.15 1.8
      vertex -30.2337 -45.15 1.8
    endloop
  endfacet
  facet normal 0 -1 -0
    outer loop
      vertex 41.9548 -45.15 1.8
      vertex -30.2337 -45.15 0
      vertex 41.9548 -45.15 0
    endloop
  endfacet
  facet normal -0.707107 -0.707107 0
    outer loop
      vertex -30.2337 -45.15 0
      vertex -43.15 -32.2337 1.8
      vertex -43.15 -32.2337 0
    endloop
  endfacet
  facet normal -0.707107 -0.707107 0
    outer loop
      vertex -43.15 -32.2337 1.8
      vertex -30.2337 -45.15 0
      vertex -30.2337 -45.15 1.8
    endloop
  endfacet
  facet normal -1 0 0
    outer loop
      vertex -43.15 -32.2337 0
      vertex -43.15 43.9548 1.8
      vertex -43.15 43.9548 0
    endloop
  endfacet
  facet normal -1 -0 0
    outer loop
      vertex -43.15 43.9548 1.8
      vertex -43.15 -32.2337 0
      vertex -43.15 -32.2337 1.8
    endloop
  endfacet
  facet normal -0.998779 0.0494006 0
    outer loop
      vertex -43.15 43.9548 0
      vertex -43.1422 44.1125 1.8
      vertex -43.1422 44.1125 0
    endloop
  endfacet
  facet normal -0.998779 0.0494006 0
    outer loop
      vertex -43.1422 44.1125 1.8
      vertex -43.15 43.9548 0
      vertex -43.15 43.9548 1.8
    endloop
  endfacet
  facet normal -0.989208 0.146516 0
    outer loop
      vertex -43.1422 44.1125 0
      vertex -43.1257 44.2239 1.8
      vertex -43.1257 44.2239 0
    endloop
  endfacet
  facet normal -0.989208 0.146516 0
    outer loop
      vertex -43.1257 44.2239 1.8
      vertex -43.1422 44.1125 0
      vertex -43.1422 44.1125 1.8
    endloop
  endfacet
  facet normal -0.970143 0.242536 0
    outer loop
      vertex -43.1257 44.2239 0
      vertex -43.0984 44.3331 1.8
      vertex -43.0984 44.3331 0
    endloop
  endfacet
  facet normal -0.970143 0.242536 0
    outer loop
      vertex -43.0984 44.3331 1.8
      vertex -43.1257 44.2239 0
      vertex -43.1257 44.2239 1.8
    endloop
  endfacet
  facet normal -0.941541 0.336898 0
    outer loop
      vertex -43.0984 44.3331 0
      vertex -43.0604 44.4393 1.8
      vertex -43.0604 44.4393 0
    endloop
  endfacet
  facet normal -0.941541 0.336898 0
    outer loop
      vertex -43.0604 44.4393 1.8
      vertex -43.0984 44.3331 0
      vertex -43.0984 44.3331 1.8
    endloop
  endfacet
  facet normal -0.903973 0.427591 0
    outer loop
      vertex -43.0604 44.4393 0
      vertex -43.0122 44.5412 1.8
      vertex -43.0122 44.5412 0
    endloop
  endfacet
  facet normal -0.903973 0.427591 0
    outer loop
      vertex -43.0122 44.5412 1.8
      vertex -43.0604 44.4393 0
      vertex -43.0604 44.4393 1.8
    endloop
  endfacet
  facet normal -0.85765 0.514234 0
    outer loop
      vertex -43.0122 44.5412 0
      vertex -42.9544 44.6376 1.8
      vertex -42.9544 44.6376 0
    endloop
  endfacet
  facet normal -0.85765 0.514234 0
    outer loop
      vertex -42.9544 44.6376 1.8
      vertex -43.0122 44.5412 0
      vertex -43.0122 44.5412 1.8
    endloop
  endfacet
  facet normal -0.80329 0.595588 0
    outer loop
      vertex -42.9544 44.6376 0
      vertex -42.8873 44.7281 1.8
      vertex -42.8873 44.7281 0
    endloop
  endfacet
  facet normal -0.80329 0.595588 0
    outer loop
      vertex -42.8873 44.7281 1.8
      vertex -42.9544 44.6376 0
      vertex -42.9544 44.6376 1.8
    endloop
  endfacet
  facet normal -0.740863 0.671656 0
    outer loop
      vertex -42.8873 44.7281 0
      vertex -42.8116 44.8116 1.8
      vertex -42.8116 44.8116 0
    endloop
  endfacet
  facet normal -0.740863 0.671656 0
    outer loop
      vertex -42.8116 44.8116 1.8
      vertex -42.8873 44.7281 0
      vertex -42.8873 44.7281 1.8
    endloop
  endfacet
  facet normal -0.671656 0.740863 0
    outer loop
      vertex -42.7281 44.8873 0
      vertex -42.8116 44.8116 1.8
      vertex -42.7281 44.8873 1.8
    endloop
  endfacet
  facet normal -0.671656 0.740863 0
    outer loop
      vertex -42.8116 44.8116 1.8
      vertex -42.7281 44.8873 0
      vertex -42.8116 44.8116 0
    endloop
  endfacet
  facet normal -0.595588 0.80329 0
    outer loop
      vertex -42.6376 44.9544 0
      vertex -42.7281 44.8873 1.8
      vertex -42.6376 44.9544 1.8
    endloop
  endfacet
  facet normal -0.595588 0.80329 0
    outer loop
      vertex -42.7281 44.8873 1.8
      vertex -42.6376 44.9544 0
      vertex -42.7281 44.8873 0
    endloop
  endfacet
  facet normal -0.514234 0.85765 0
    outer loop
      vertex -42.5412 45.0122 0
      vertex -42.6376 44.9544 1.8
      vertex -42.5412 45.0122 1.8
    endloop
  endfacet
  facet normal -0.514234 0.85765 0
    outer loop
      vertex -42.6376 44.9544 1.8
      vertex -42.5412 45.0122 0
      vertex -42.6376 44.9544 0
    endloop
  endfacet
  facet normal -0.427591 0.903973 0
    outer loop
      vertex -42.4393 45.0604 0
      vertex -42.5412 45.0122 1.8
      vertex -42.4393 45.0604 1.8
    endloop
  endfacet
  facet normal -0.427591 0.903973 0
    outer loop
      vertex -42.5412 45.0122 1.8
      vertex -42.4393 45.0604 0
      vertex -42.5412 45.0122 0
    endloop
  endfacet
  facet normal -0.336898 0.941541 0
    outer loop
      vertex -42.3331 45.0984 0
      vertex -42.4393 45.0604 1.8
      vertex -42.3331 45.0984 1.8
    endloop
  endfacet
  facet normal -0.336898 0.941541 0
    outer loop
      vertex -42.4393 45.0604 1.8
      vertex -42.3331 45.0984 0
      vertex -42.4393 45.0604 0
    endloop
  endfacet
  facet normal -0.242536 0.970143 0
    outer loop
      vertex -42.2239 45.1257 0
      vertex -42.3331 45.0984 1.8
      vertex -42.2239 45.1257 1.8
    endloop
  endfacet
  facet normal -0.242536 0.970143 0
    outer loop
      vertex -42.3331 45.0984 1.8
      vertex -42.2239 45.1257 0
      vertex -42.3331 45.0984 0
    endloop
  endfacet
  facet normal -0.146516 0.989208 0
    outer loop
      vertex -42.1125 45.1422 0
      vertex -42.2239 45.1257 1.8
      vertex -42.1125 45.1422 1.8
    endloop
  endfacet
  facet normal -0.146516 0.989208 0
    outer loop
      vertex -42.2239 45.1257 1.8
      vertex -42.1125 45.1422 0
      vertex -42.2239 45.1257 0
    endloop
  endfacet
  facet normal -0.0494006 0.998779 0
    outer loop
      vertex -41.9548 45.15 0
      vertex -42.1125 45.1422 1.8
      vertex -41.9548 45.15 1.8
    endloop
  endfacet
  facet normal -0.0494006 0.998779 0
    outer loop
      vertex -42.1125 45.1422 1.8
      vertex -41.9548 45.15 0
      vertex -42.1125 45.1422 0
    endloop
  endfacet
  facet normal 0 1 0
    outer loop
      vertex 41.9548 45.15 1.8
      vertex 4.64209 45.15 0.0999994
      vertex -41.9548 45.15 1.8
    endloop
  endfacet
  facet normal 0 1 -0
    outer loop
      vertex 41.9548 45.15 0
      vertex 4.64209 45.15 0.0999994
      vertex 41.9548 45.15 1.8
    endloop
  endfacet
  facet normal 0 1 0
    outer loop
      vertex 4.64209 45.15 0.0999994
      vertex 41.9548 45.15 0
      vertex 4.64209 45.15 0
    endloop
  endfacet
  facet normal 0 1 -0
    outer loop
      vertex -4.64209 45.15 0.0999994
      vertex -41.9548 45.15 1.8
      vertex 4.64209 45.15 0.0999994
    endloop
  endfacet
  facet normal 0 1 0
    outer loop
      vertex -41.9548 45.15 0
      vertex -4.64209 45.15 0.0999994
      vertex -4.64209 45.15 0
    endloop
  endfacet
  facet normal 0 1 0
    outer loop
      vertex -4.64209 45.15 0.0999994
      vertex -41.9548 45.15 0
      vertex -41.9548 45.15 1.8
    endloop
  endfacet
  facet normal 0.0494006 0.998779 -0
    outer loop
      vertex 42.1125 45.1422 0
      vertex 41.9548 45.15 1.8
      vertex 42.1125 45.1422 1.8
    endloop
  endfacet
  facet normal 0.0494006 0.998779 0
    outer loop
      vertex 41.9548 45.15 1.8
      vertex 42.1125 45.1422 0
      vertex 41.9548 45.15 0
    endloop
  endfacet
  facet normal 1 -0 0
    outer loop
      vertex -41.75 -31.6538 1.8
      vertex -41.75 43.75 0
      vertex -41.75 43.75 1.8
    endloop
  endfacet
  facet normal 1 0 0
    outer loop
      vertex -41.75 43.75 0
      vertex -41.75 -31.6538 1.8
      vertex -41.75 -31.6538 0
    endloop
  endfacet
  facet normal 0.707107 0.707107 0
    outer loop
      vertex -29.6538 -43.75 1.8
      vertex -41.75 -31.6538 0
      vertex -41.75 -31.6538 1.8
    endloop
  endfacet
  facet normal 0.707107 0.707107 0
    outer loop
      vertex -41.75 -31.6538 0
      vertex -29.6538 -43.75 1.8
      vertex -29.6538 -43.75 0
    endloop
  endfacet
  facet normal 0 1 -0
    outer loop
      vertex 41.75 -43.75 0
      vertex -29.6538 -43.75 1.8
      vertex 41.75 -43.75 1.8
    endloop
  endfacet
  facet normal 0 1 0
    outer loop
      vertex -29.6538 -43.75 1.8
      vertex 41.75 -43.75 0
      vertex -29.6538 -43.75 0
    endloop
  endfacet
  facet normal -1 0 0
    outer loop
      vertex 41.75 -43.75 0
      vertex 41.75 43.75 1.8
      vertex 41.75 43.75 0
    endloop
  endfacet
  facet normal -1 -0 0
    outer loop
      vertex 41.75 43.75 1.8
      vertex 41.75 -43.75 0
      vertex 41.75 -43.75 1.8
    endloop
  endfacet
  facet normal 0 -1 0
    outer loop
      vertex -41.75 43.75 1.8
      vertex -3.79433 43.75 0.0999994
      vertex 41.75 43.75 1.8
    endloop
  endfacet
  facet normal 0 -1 0
    outer loop
      vertex -41.75 43.75 0
      vertex -3.79433 43.75 0.0999994
      vertex -41.75 43.75 1.8
    endloop
  endfacet
  facet normal 0 -1 -0
    outer loop
      vertex -3.79433 43.75 0.0999994
      vertex -41.75 43.75 0
      vertex -3.79433 43.75 0
    endloop
  endfacet
  facet normal 0 -1 0
    outer loop
      vertex 3.79433 43.75 0.0999994
      vertex 41.75 43.75 1.8
      vertex -3.79433 43.75 0.0999994
    endloop
  endfacet
  facet normal 0 -1 0
    outer loop
      vertex 41.75 43.75 0
      vertex 3.79433 43.75 0.0999994
      vertex 3.79433 43.75 0
    endloop
  endfacet
  facet normal 0 -1 0
    outer loop
      vertex 3.79433 43.75 0.0999994
      vertex 41.75 43.75 0
      vertex 41.75 43.75 1.8
    endloop
  endfacet
  facet normal -0.98918 0.146706 0
    outer loop
      vertex 4.90393 46.0245 -1.6
      vertex 4.97592 46.5099 0
      vertex 4.97592 46.5099 -1.6
    endloop
  endfacet
  facet normal -0.98918 0.146706 0
    outer loop
      vertex 4.97592 46.5099 0
      vertex 4.90393 46.0245 -1.6
      vertex 4.90393 46.0245 0
    endloop
  endfacet
  facet normal -0.998795 0.0490736 0
    outer loop
      vertex 4.97592 46.5099 -1.6
      vertex 5 47 0
      vertex 5 47 -1.6
    endloop
  endfacet
  facet normal -0.998795 0.0490736 0
    outer loop
      vertex 5 47 0
      vertex 4.97592 46.5099 -1.6
      vertex 4.97592 46.5099 0
    endloop
  endfacet
  facet normal -0.97002 0.243025 0
    outer loop
      vertex 4.7847 45.5486 -1.6
      vertex 4.90393 46.0245 0
      vertex 4.90393 46.0245 -1.6
    endloop
  endfacet
  facet normal -0.97002 0.243025 0
    outer loop
      vertex 4.90393 46.0245 0
      vertex 4.7847 45.5486 -1.6
      vertex 4.7847 45.5486 0
    endloop
  endfacet
  facet normal -0.146736 0.989176 0
    outer loop
      vertex 0.975451 42.0961 -1.6
      vertex 0.490086 42.0241 0
      vertex 0.975451 42.0961 0
    endloop
  endfacet
  facet normal -0.146736 0.989176 0
    outer loop
      vertex 0.490086 42.0241 0
      vertex 0.975451 42.0961 -1.6
      vertex 0.490086 42.0241 -1.6
    endloop
  endfacet
  facet normal -0.0491157 0.998793 0
    outer loop
      vertex 0.490086 42.0241 -1.6
      vertex 0 42 0
      vertex 0.490086 42.0241 0
    endloop
  endfacet
  facet normal -0.0491157 0.998793 0
    outer loop
      vertex 0 42 0
      vertex 0.490086 42.0241 -1.6
      vertex 0 42 -1.6
    endloop
  endfacet
  facet normal -0.336879 0.941548 0
    outer loop
      vertex 1.91342 42.3806 -1.6
      vertex 1.45142 42.2153 0
      vertex 1.91342 42.3806 0
    endloop
  endfacet
  facet normal -0.336879 0.941548 0
    outer loop
      vertex 1.45142 42.2153 0
      vertex 1.91342 42.3806 -1.6
      vertex 1.45142 42.2153 -1.6
    endloop
  endfacet
  facet normal 0.514163 0.857692 -0
    outer loop
      vertex -2.35698 42.5904 -1.6
      vertex -2.77785 42.8427 0
      vertex -2.35698 42.5904 0
    endloop
  endfacet
  facet normal 0.514163 0.857692 0
    outer loop
      vertex -2.77785 42.8427 0
      vertex -2.35698 42.5904 -1.6
      vertex -2.77785 42.8427 -1.6
    endloop
  endfacet
  facet normal 0.941553 0.336866 0
    outer loop
      vertex -4.64209 45.15 0
      vertex -4.7847 45.5486 -1.6
      vertex -4.7847 45.5486 0
    endloop
  endfacet
  facet normal 0.94152 0.336957 -0
    outer loop
      vertex -4.6194 45.0866 -1.6
      vertex -4.64209 45.15 0
      vertex -4.6194 45.0866 0.0999994
    endloop
  endfacet
  facet normal 0.941548 0.336879 3.51552e-06
    outer loop
      vertex -4.64209 45.15 0
      vertex -4.6194 45.0866 -1.6
      vertex -4.7847 45.5486 -1.6
    endloop
  endfacet
  facet normal 0.94152 0.336957 0
    outer loop
      vertex -4.64209 45.15 0.0999994
      vertex -4.6194 45.0866 0.0999994
      vertex -4.64209 45.15 0
    endloop
  endfacet
  facet normal -0.427575 0.90398 0
    outer loop
      vertex 2.35698 42.5904 -1.6
      vertex 1.91342 42.3806 0
      vertex 2.35698 42.5904 0
    endloop
  endfacet
  facet normal -0.427575 0.90398 0
    outer loop
      vertex 1.91342 42.3806 0
      vertex 2.35698 42.5904 -1.6
      vertex 1.91342 42.3806 -1.6
    endloop
  endfacet
  facet normal -0.242934 0.970043 0
    outer loop
      vertex 1.45142 42.2153 -1.6
      vertex 0.975451 42.0961 0
      vertex 1.45142 42.2153 0
    endloop
  endfacet
  facet normal -0.242934 0.970043 0
    outer loop
      vertex 0.975451 42.0961 0
      vertex 1.45142 42.2153 -1.6
      vertex 0.975451 42.0961 -1.6
    endloop
  endfacet
  facet normal 0.595569 0.803304 -0
    outer loop
      vertex -2.77785 42.8427 -1.6
      vertex -3.17197 43.1349 0
      vertex -2.77785 42.8427 0
    endloop
  endfacet
  facet normal 0.595569 0.803304 0
    outer loop
      vertex -3.17197 43.1349 0
      vertex -2.77785 42.8427 -1.6
      vertex -3.17197 43.1349 -1.6
    endloop
  endfacet
  facet normal 0.336879 0.941548 -0
    outer loop
      vertex -1.45142 42.2153 -1.6
      vertex -1.91342 42.3806 0
      vertex -1.45142 42.2153 0
    endloop
  endfacet
  facet normal 0.336879 0.941548 0
    outer loop
      vertex -1.91342 42.3806 0
      vertex -1.45142 42.2153 -1.6
      vertex -1.91342 42.3806 -1.6
    endloop
  endfacet
  facet normal -0.803192 0.59572 0
    outer loop
      vertex 3.86505 43.828 -1.6
      vertex 4.15735 44.2221 0.0999994
      vertex 4.15735 44.2221 -1.6
    endloop
  endfacet
  facet normal -0.803192 0.59572 0
    outer loop
      vertex 4.15735 44.2221 0.0999994
      vertex 3.86505 43.828 -1.6
      vertex 3.86505 43.828 0.0999994
    endloop
  endfacet
  facet normal 0.146736 0.989176 -0
    outer loop
      vertex -0.490086 42.0241 -1.6
      vertex -0.975451 42.0961 0
      vertex -0.490086 42.0241 0
    endloop
  endfacet
  facet normal 0.146736 0.989176 0
    outer loop
      vertex -0.975451 42.0961 0
      vertex -0.490086 42.0241 -1.6
      vertex -0.975451 42.0961 -1.6
    endloop
  endfacet
  facet normal 0.740833 0.671689 -0
    outer loop
      vertex -3.79433 43.75 0
      vertex -3.86505 43.828 0.0999994
      vertex -3.79433 43.75 0.0999994
    endloop
  endfacet
  facet normal 0.740833 0.671689 0
    outer loop
      vertex -3.86505 43.828 0.0999994
      vertex -3.79433 43.75 0
      vertex -3.86505 43.828 -1.6
    endloop
  endfacet
  facet normal 0.740902 0.671613 -0
    outer loop
      vertex -3.53553 43.4645 -1.6
      vertex -3.79433 43.75 0
      vertex -3.53553 43.4645 0
    endloop
  endfacet
  facet normal 0.740887 0.671629 -5.29933e-06
    outer loop
      vertex -3.79433 43.75 0
      vertex -3.53553 43.4645 -1.6
      vertex -3.86505 43.828 -1.6
    endloop
  endfacet
  facet normal 0.97002 0.243025 0
    outer loop
      vertex -4.7847 45.5486 0
      vertex -4.90393 46.0245 -1.6
      vertex -4.90393 46.0245 0
    endloop
  endfacet
  facet normal 0.97002 0.243025 0
    outer loop
      vertex -4.90393 46.0245 -1.6
      vertex -4.7847 45.5486 0
      vertex -4.7847 45.5486 -1.6
    endloop
  endfacet
  facet normal -0.514163 0.857692 0
    outer loop
      vertex 2.77785 42.8427 -1.6
      vertex 2.35698 42.5904 0
      vertex 2.77785 42.8427 0
    endloop
  endfacet
  facet normal -0.514163 0.857692 0
    outer loop
      vertex 2.35698 42.5904 0
      vertex 2.77785 42.8427 -1.6
      vertex 2.35698 42.5904 -1.6
    endloop
  endfacet
  facet normal -0.595569 0.803304 0
    outer loop
      vertex 3.17197 43.1349 -1.6
      vertex 2.77785 42.8427 0
      vertex 3.17197 43.1349 0
    endloop
  endfacet
  facet normal -0.595569 0.803304 0
    outer loop
      vertex 2.77785 42.8427 0
      vertex 3.17197 43.1349 -1.6
      vertex 2.77785 42.8427 -1.6
    endloop
  endfacet
  facet normal -0.941553 0.336866 0
    outer loop
      vertex 4.7847 45.5486 -1.6
      vertex 4.64209 45.15 0
      vertex 4.7847 45.5486 0
    endloop
  endfacet
  facet normal -0.941548 0.336879 3.51552e-06
    outer loop
      vertex 4.6194 45.0866 -1.6
      vertex 4.64209 45.15 0
      vertex 4.7847 45.5486 -1.6
    endloop
  endfacet
  facet normal -0.94152 0.336957 0
    outer loop
      vertex 4.6194 45.0866 0.0999994
      vertex 4.64209 45.15 0
      vertex 4.6194 45.0866 -1.6
    endloop
  endfacet
  facet normal -0.94152 0.336957 0
    outer loop
      vertex 4.64209 45.15 0
      vertex 4.6194 45.0866 0.0999994
      vertex 4.64209 45.15 0.0999994
    endloop
  endfacet
  facet normal 0.998795 0.0490736 0
    outer loop
      vertex -4.97592 46.5099 0
      vertex -5 47 -1.6
      vertex -5 47 0
    endloop
  endfacet
  facet normal 0.998795 0.0490736 0
    outer loop
      vertex -5 47 -1.6
      vertex -4.97592 46.5099 0
      vertex -4.97592 46.5099 -1.6
    endloop
  endfacet
  facet normal -0.740833 0.671689 0
    outer loop
      vertex 3.86505 43.828 -1.6
      vertex 3.79433 43.75 0
      vertex 3.86505 43.828 0.0999994
    endloop
  endfacet
  facet normal -0.740887 0.671629 -5.29933e-06
    outer loop
      vertex 3.53553 43.4645 -1.6
      vertex 3.79433 43.75 0
      vertex 3.86505 43.828 -1.6
    endloop
  endfacet
  facet normal -0.740902 0.671613 0
    outer loop
      vertex 3.79433 43.75 0
      vertex 3.53553 43.4645 -1.6
      vertex 3.53553 43.4645 0
    endloop
  endfacet
  facet normal -0.740833 0.671689 0
    outer loop
      vertex 3.86505 43.828 0.0999994
      vertex 3.79433 43.75 0
      vertex 3.79433 43.75 0.0999994
    endloop
  endfacet
  facet normal -0.671658 0.740861 0
    outer loop
      vertex 3.53553 43.4645 -1.6
      vertex 3.17197 43.1349 0
      vertex 3.53553 43.4645 0
    endloop
  endfacet
  facet normal -0.671658 0.740861 0
    outer loop
      vertex 3.17197 43.1349 0
      vertex 3.53553 43.4645 -1.6
      vertex 3.17197 43.1349 -1.6
    endloop
  endfacet
  facet normal -0.904003 0.427526 0
    outer loop
      vertex 4.40961 44.643 -1.6
      vertex 4.6194 45.0866 0.0999994
      vertex 4.6194 45.0866 -1.6
    endloop
  endfacet
  facet normal -0.904003 0.427526 0
    outer loop
      vertex 4.6194 45.0866 0.0999994
      vertex 4.40961 44.643 -1.6
      vertex 4.40961 44.643 0.0999994
    endloop
  endfacet
  facet normal 0.857745 0.514076 0
    outer loop
      vertex -4.15735 44.2221 0.0999994
      vertex -4.40961 44.643 -1.6
      vertex -4.40961 44.643 0.0999994
    endloop
  endfacet
  facet normal 0.857745 0.514076 0
    outer loop
      vertex -4.40961 44.643 -1.6
      vertex -4.15735 44.2221 0.0999994
      vertex -4.15735 44.2221 -1.6
    endloop
  endfacet
  facet normal -0.857745 0.514076 0
    outer loop
      vertex 4.15735 44.2221 -1.6
      vertex 4.40961 44.643 0.0999994
      vertex 4.40961 44.643 -1.6
    endloop
  endfacet
  facet normal -0.857745 0.514076 0
    outer loop
      vertex 4.40961 44.643 0.0999994
      vertex 4.15735 44.2221 -1.6
      vertex 4.15735 44.2221 0.0999994
    endloop
  endfacet
  facet normal 0.0491157 0.998793 -0
    outer loop
      vertex 0 42 -1.6
      vertex -0.490086 42.0241 0
      vertex 0 42 0
    endloop
  endfacet
  facet normal 0.0491157 0.998793 0
    outer loop
      vertex -0.490086 42.0241 0
      vertex 0 42 -1.6
      vertex -0.490086 42.0241 -1.6
    endloop
  endfacet
  facet normal 0.671658 0.740861 -0
    outer loop
      vertex -3.17197 43.1349 -1.6
      vertex -3.53553 43.4645 0
      vertex -3.17197 43.1349 0
    endloop
  endfacet
  facet normal 0.671658 0.740861 0
    outer loop
      vertex -3.53553 43.4645 0
      vertex -3.17197 43.1349 -1.6
      vertex -3.53553 43.4645 -1.6
    endloop
  endfacet
  facet normal 0.427575 0.90398 -0
    outer loop
      vertex -1.91342 42.3806 -1.6
      vertex -2.35698 42.5904 0
      vertex -1.91342 42.3806 0
    endloop
  endfacet
  facet normal 0.427575 0.90398 0
    outer loop
      vertex -2.35698 42.5904 0
      vertex -1.91342 42.3806 -1.6
      vertex -2.35698 42.5904 -1.6
    endloop
  endfacet
  facet normal 0.242934 0.970043 -0
    outer loop
      vertex -0.975451 42.0961 -1.6
      vertex -1.45142 42.2153 0
      vertex -0.975451 42.0961 0
    endloop
  endfacet
  facet normal 0.242934 0.970043 0
    outer loop
      vertex -1.45142 42.2153 0
      vertex -0.975451 42.0961 -1.6
      vertex -1.45142 42.2153 -1.6
    endloop
  endfacet
  facet normal 0.803192 0.59572 0
    outer loop
      vertex -3.86505 43.828 0.0999994
      vertex -4.15735 44.2221 -1.6
      vertex -4.15735 44.2221 0.0999994
    endloop
  endfacet
  facet normal 0.803192 0.59572 0
    outer loop
      vertex -4.15735 44.2221 -1.6
      vertex -3.86505 43.828 0.0999994
      vertex -3.86505 43.828 -1.6
    endloop
  endfacet
  facet normal 0.904003 0.427526 0
    outer loop
      vertex -4.40961 44.643 0.0999994
      vertex -4.6194 45.0866 -1.6
      vertex -4.6194 45.0866 0.0999994
    endloop
  endfacet
  facet normal 0.904003 0.427526 0
    outer loop
      vertex -4.6194 45.0866 -1.6
      vertex -4.40961 44.643 0.0999994
      vertex -4.40961 44.643 -1.6
    endloop
  endfacet
  facet normal 0.98918 0.146706 0
    outer loop
      vertex -4.90393 46.0245 0
      vertex -4.97592 46.5099 -1.6
      vertex -4.97592 46.5099 0
    endloop
  endfacet
  facet normal 0.98918 0.146706 0
    outer loop
      vertex -4.97592 46.5099 -1.6
      vertex -4.90393 46.0245 0
      vertex -4.90393 46.0245 -1.6
    endloop
  endfacet
  facet normal 0 0 -1
    outer loop
      vertex 4.40961 44.643 0.0999994
      vertex 4.64209 45.15 0.0999994
      vertex 4.6194 45.0866 0.0999994
    endloop
  endfacet
  facet normal 0 0 -1
    outer loop
      vertex 4.15735 44.2221 0.0999994
      vertex 4.64209 45.15 0.0999994
      vertex 4.40961 44.643 0.0999994
    endloop
  endfacet
  facet normal 0 0 -1
    outer loop
      vertex 3.79433 43.75 0.0999994
      vertex 4.15735 44.2221 0.0999994
      vertex 3.86505 43.828 0.0999994
    endloop
  endfacet
  facet normal -0 0 -1
    outer loop
      vertex 4.15735 44.2221 0.0999994
      vertex 3.79433 43.75 0.0999994
      vertex 4.64209 45.15 0.0999994
    endloop
  endfacet
  facet normal 0 0 -1
    outer loop
      vertex -3.79433 43.75 0.0999994
      vertex 4.64209 45.15 0.0999994
      vertex 3.79433 43.75 0.0999994
    endloop
  endfacet
  facet normal 0 0 -1
    outer loop
      vertex -4.15735 44.2221 0.0999994
      vertex -3.79433 43.75 0.0999994
      vertex -3.86505 43.828 0.0999994
    endloop
  endfacet
  facet normal 0 0 -1
    outer loop
      vertex -3.79433 43.75 0.0999994
      vertex -4.15735 44.2221 0.0999994
      vertex 4.64209 45.15 0.0999994
    endloop
  endfacet
  facet normal 0 0 -1
    outer loop
      vertex -4.40961 44.643 0.0999994
      vertex 4.64209 45.15 0.0999994
      vertex -4.15735 44.2221 0.0999994
    endloop
  endfacet
  facet normal 0 0 -1
    outer loop
      vertex -4.64209 45.15 0.0999994
      vertex -4.40961 44.643 0.0999994
      vertex -4.6194 45.0866 0.0999994
    endloop
  endfacet
  facet normal 0 0 -1
    outer loop
      vertex -4.40961 44.643 0.0999994
      vertex -4.64209 45.15 0.0999994
      vertex 4.64209 45.15 0.0999994
    endloop
  endfacet
endsolid OpenSCAD_Model
